<svg class="logo" width="271" height="60" viewBox="0 0 271.24 60.26" xmlns="http://www.w3.org/2000/svg">
  <g class="logo__icon" fill="#5cd8e5">
    <path d="m58.42 0h-56.57a1.85 1.85 0 0 0 -1.85 1.85v7.76h30.13a20.53 20.53 0 0 1 17.08 31.9h13v-39.66a1.84 1.84 0 0 0 -1.79-1.85z"/>
    <path d="m9.61 30.13a20.47 20.47 0 0 1 3.44-11.38h-13.05v39.67a1.84 1.84 0 0 0 1.85 1.84h56.57a1.84 1.84 0 0 0 1.84-1.84v-7.77h-30.13a20.52 20.52 0 0 1 -20.52-20.52z"/>
    <path d="m45.05 29.61a23.13 23.13 0 0 1 -5.73 1.39 10 10 0 0 0 -.06-2.31 24.46 24.46 0 0 0 4.93-5.81 2.21 2.21 0 0 0 -3.74-2.37 22 22 0 0 1 -3.05 3.89 9.07 9.07 0 0 0 -1.9-1.81 18.24 18.24 0 0 0 -.31-3.88 31.22 31.22 0 0 0 -1.41-5.05 2.21 2.21 0 0 0 -2.84-1.32 2.11 2.11 0 0 0 -.81.51 2.23 2.23 0 0 0 -.52 2.33c.2.53.37 1 .52 1.53.22.71.4 1.38.55 2a18.89 18.89 0 0 1 .32 2.29 8.62 8.62 0 0 0 -2.3.06 24.52 24.52 0 0 0 -5.82-4.94 2.22 2.22 0 0 0 -2.37 3.75 22.07 22.07 0 0 1 3.9 3 9.35 9.35 0 0 0 -1.82 1.9 23.85 23.85 0 0 0 -8.93 1.73 2.21 2.21 0 0 0 1.52 4.16 23.28 23.28 0 0 1 5.82-1.43c0 .3-.05.6-.05.9a9.23 9.23 0 0 0 .11 1.4 24.26 24.26 0 0 0 -4.94 5.81 2.21 2.21 0 0 0 1.87 3.4 2.2 2.2 0 0 0 1.88-1 21.6 21.6 0 0 1 3-3.89 9.93 9.93 0 0 0 1.9 1.82 17.62 17.62 0 0 0 .32 3.87 30.22 30.22 0 0 0 1.41 5.05 2.2 2.2 0 0 0 2.07 1.41 2.25 2.25 0 0 0 .76-.13 2.31 2.31 0 0 0 .8-.52 2.2 2.2 0 0 0 .52-2.32c-.19-.54-.37-1-.52-1.54-.22-.71-.4-1.37-.54-2a16.58 16.58 0 0 1 -.36-2.19h.9a9.36 9.36 0 0 0 1.41-.1 24.39 24.39 0 0 0 5.8 4.93 2.21 2.21 0 1 0 2.37-3.74 22.34 22.34 0 0 1 -3.89-3.05 9.38 9.38 0 0 0 1.82-1.9h.51a25 25 0 0 0 8.41-1.73 2.22 2.22 0 0 0 -1.51-4.17zm-10 .52v.4a4.9 4.9 0 0 1 -1.74 3.39 4.51 4.51 0 0 1 -.61.44 5 5 0 0 1 -2.59.73h-.4a4.9 4.9 0 0 1 -3.38-1.73 5.79 5.79 0 0 1 -.45-.62 5 5 0 0 1 -.73-2.59c0-.13 0-.27 0-.4a4.69 4.69 0 0 1 .12-.75 5 5 0 0 1 1.61-2.63 7 7 0 0 1 .62-.45 5 5 0 0 1 2.59-.73h.4a4.81 4.81 0 0 1 .76.12 5 5 0 0 1 2.63 1.62 4.51 4.51 0 0 1 .44.61 5 5 0 0 1 .77 2.59z"/>
  </g>
  <g class="logo__wordmark" fill="#000">
    <path d="m107.37 6.37h-35.25l-2.1 12.05h10.73l-6.18 35.48h13.78l6.18-35.48h10.73z"/>
    <path d="m133 6.36-6.25 35.89h-8.15l6.25-35.89h-13.78l-6.52 37.52a13.37 13.37 0 0 0 -.09 5.33 5.78 5.78 0 0 0 1.94 3.25 8.16 8.16 0 0 0 3.73 1.59 29.13 29.13 0 0 0 5.22.43h10.28a32.06 32.06 0 0 0 5.43-.43 11.56 11.56 0 0 0 4.3-1.59 9.66 9.66 0 0 0 3.09-3.25 15.69 15.69 0 0 0 1.82-5.33l6.52-37.52z"/>
    <path d="m187 11.78a6.09 6.09 0 0 0 -2-3.26 8.42 8.42 0 0 0 -3.71-1.68 25.36 25.36 0 0 0 -5.2-.48h-22.85l-8.24 47.54h13.79l2.81-16.26h1.91l5.26 16.26h15.11l-6.89-18.3h.4a16.45 16.45 0 0 0 2.89-1.21 8.52 8.52 0 0 0 2.36-1.85 10.24 10.24 0 0 0 1.7-2.68 16.21 16.21 0 0 0 1.07-3.56l1.59-9.24a12.89 12.89 0 0 0 0-5.28zm-14.12 8.06-.94 5.16a5.75 5.75 0 0 1 -.33.94 1.92 1.92 0 0 1 -.57.69 2.42 2.42 0 0 1 -.81.43 3.35 3.35 0 0 1 -1 .15h-5.8l1.66-9.54h5.81a2.84 2.84 0 0 1 1 .15 1.72 1.72 0 0 1 .65.43 1.48 1.48 0 0 1 .32.68 2.73 2.73 0 0 1 -.04.91z"/>
    <path d="m228.87 12.05a6.27 6.27 0 0 0 -1.79-3.33 8 8 0 0 0 -3.46-1.8 19.51 19.51 0 0 0 -4.89-.56h-24l-8.25 47.54h24.52a21.59 21.59 0 0 0 5.08-.56 12.06 12.06 0 0 0 4.09-1.83 10.2 10.2 0 0 0 3-3.38 16.13 16.13 0 0 0 1.71-5.13l.51-3.13a19.84 19.84 0 0 0 .32-3.56 8.55 8.55 0 0 0 -.51-3 5.73 5.73 0 0 0 -1.49-2.23 7.58 7.58 0 0 0 -2.64-1.49 11 11 0 0 0 2.81-1.48 9.81 9.81 0 0 0 2.12-2.11 11.22 11.22 0 0 0 1.45-2.64 17.28 17.28 0 0 0 .86-3.23l.55-3a14 14 0 0 0 .01-5.08zm-16.87 25.35-.64 3.6a4.79 4.79 0 0 1 -.32 1.16 2.32 2.32 0 0 1 -.59.83 2.61 2.61 0 0 1 -.92.49 4.43 4.43 0 0 1 -1.29.17h-6.18l1.56-8.93h6.18a2.46 2.46 0 0 1 2 .61 2.67 2.67 0 0 1 .2 2.07zm2.89-18.17-.48 3a5.48 5.48 0 0 1 -.37 1.27 2.29 2.29 0 0 1 -.59.83 2.5 2.5 0 0 1 -.92.48 4.63 4.63 0 0 1 -1.31.17h-5.87l1.43-8.36h5.87a4.13 4.13 0 0 1 1.26.17 1.63 1.63 0 0 1 .76.5 1.55 1.55 0 0 1 .31.81 4.15 4.15 0 0 1 -.12 1.13z"/>
    <path d="m270.93 10.9a5.91 5.91 0 0 0 -2.07-3.13 8.58 8.58 0 0 0 -3.77-1.56 28.77 28.77 0 0 0 -5.17-.42h-11.48a31.05 31.05 0 0 0 -5.28.42 12.05 12.05 0 0 0 -4.29 1.56 9.31 9.31 0 0 0 -3.11 3.13 14.71 14.71 0 0 0 -1.82 5.1l-4.85 27.77a13.49 13.49 0 0 0 -.05 5.3 5.85 5.85 0 0 0 1.9 3.26 8.16 8.16 0 0 0 3.7 1.65 27.78 27.78 0 0 0 5.31.46h11.48a30.24 30.24 0 0 0 5.46-.46 12.31 12.31 0 0 0 4.32-1.65 9.62 9.62 0 0 0 3.1-3.26 15.25 15.25 0 0 0 1.79-5.3l4.9-27.77a11.11 11.11 0 0 0 -.07-5.1zm-18.42 31.35h-9.37l4.28-24.25h9.37z"/>
  </g>
</svg>