<svg width="60" height="60" xmlns="http://www.w3.org/2000/svg"><path d="M33.264 59.931a1.283 1.283 0 0 1-.764-1.18V12.5c0-.348.139-.626.347-.904 2.987-2.916 8.264-7.014 16.806-9.652C54.722.347 58.472 0 58.61 0c.348 0 .695.14.973.347.278.21.416.556.416.903V47.5c0 .625-.486 1.181-1.18 1.25-.14 0-14.653 1.32-24.167 10.903-.278.208-.556.347-.903.347-.14 0-.347 0-.486-.069m-7.917-.278C15.764 50.07 1.25 48.75 1.11 48.75A1.272 1.272 0 0 1 0 47.5V1.25C0 .903.139.556.417.347.625.07.972 0 1.32 0c.208 0 3.958.347 9.027 1.945 4.723 1.458 11.459 4.305 16.806 9.652.208.278.347.556.347.903v46.25c0 .487-.347.973-.763 1.181-.14.07-.348.07-.487.07-.347 0-.625-.14-.903-.348" fill="#D8C6A6" fill-rule="evenodd"/></svg>