<svg viewBox="0 0 122.59 56.15" xmlns="http://www.w3.org/2000/svg"><path d="m121.41 9.41h-6.61a2.68 2.68 0 0 0 -2.37 1.68l-1.53 4.32-1.2 3.35-1.7 4.84a8 8 0 0 1 -.71 1.68 8.56 8.56 0 0 1 -.69-1.68l-1.6-4.83c-.32-.92-.84-2.44-1.17-3.36l-1.53-4.32a2.68 2.68 0 0 0 -2.37-1.68h-25.43a1.78 1.78 0 0 0 -1.78 1.78v10.11a1.78 1.78 0 0 1 -1.72 1.78h-7.4a1.78 1.78 0 0 1 -1.78-1.78v-10.11a1.78 1.78 0 0 0 -1.82-1.78h-6.17a1.78 1.78 0 0 0 -1.78 1.78v4.66c3.27 4.18 3.28 11.78 0 23.1v5.39a1.78 1.78 0 0 0 1.78 1.78h6.17a1.78 1.78 0 0 0 1.78-1.78v-11a1.78 1.78 0 0 1 1.78-1.78h7.44a1.78 1.78 0 0 1 1.77 1.78v11a1.78 1.78 0 0 0 1.78 1.78h20.72a1.78 1.78 0 0 0 1.73-1.78v-4.57a1.78 1.78 0 0 0 -1.73-1.77h-11a1.78 1.78 0 0 1 -1.78-1.78v-3a1.78 1.78 0 0 1 1.78-1.77h6.64a1.79 1.79 0 0 0 1.78-1.78v-4.59a1.78 1.78 0 0 0 -1.78-1.78h-6.66a1.78 1.78 0 0 1 -1.78-1.78v-2.2a1.78 1.78 0 0 1 1.78-1.78h9a3 3 0 0 1 2.53 1.62l5.84 12.69a9.69 9.69 0 0 1 .74 3.4v9.09a1.78 1.78 0 0 0 1.78 1.78h6.16a1.78 1.78 0 0 0 1.77-1.78v-9.09a9.71 9.71 0 0 1 .75-3.4l9.62-20.85a1.05 1.05 0 0 0 -1.03-1.59z"/><path d="m43.51 15.67a13.46 13.46 0 0 0 -6.18 3.67c-1.94-6.91-6.17-17.34-10.28-19.07a3 3 0 0 0 -2.77.13c-2.58 1.46-4.28 6.33-2.79 15.49-5.69-10.4-7.67-10.39-8.59-10.39a2.24 2.24 0 0 0 -2 1.39c-.62 1.37-1.8 5.64 1.15 14.8-3.61-4.94-4.72-5.57-6-5.52a2.27 2.27 0 0 0 -1.93 1.3c-1.1 2-1 7.19 2.41 14.85a6.74 6.74 0 0 0 -4.14-1.71 2.47 2.47 0 0 0 -2 1.27c-1.39 2.51 1.51 9.56 5 14.32 2.86 3.92 8.63 9.95 17 9.95a17.64 17.64 0 0 0 3.47-.34 1.52 1.52 0 1 0 -.58-3c-6.94 1.34-12.17-2.47-15.34-5.9-4.75-5.11-6.82-11.26-6.94-13.13 1 .39 3.84 2.08 9.41 9.21a1.53 1.53 0 0 0 2.48-1.79c-7.82-11.85-8.58-19-8.32-21.44 2.29 2.34 8 10.94 12.35 17.42a1.53 1.53 0 0 0 2.61-1.58c-9-16.52-8.69-24.07-8.16-26.54 1.34 1.36 4.94 6.13 12.49 22.56a1.53 1.53 0 0 0 2.82-1.16c-7.32-20-4.14-26.7-2.93-27.4 1.58 0 6.05 7.6 8.77 17.55.17.62.33 1.22.48 1.81a9.8 9.8 0 0 0 -.9 2.16c-1.52 5.51-2.94 18.08-.1 21.42a2.77 2.77 0 0 0 2.44 1 3.91 3.91 0 0 0 2.87-1.78c2.69-3.91 1.12-13.75-1-22.36a11.29 11.29 0 0 1 5.93-4.3 2.91 2.91 0 0 1 3 .72c1.23 1.37 3.38 6.54-3.13 24.76a1.52 1.52 0 0 0 2.87 1c5.2-14.53 6-23.89 2.54-27.83a5.93 5.93 0 0 0 -6.01-1.54zm-6.71 27.9a.94.94 0 0 1 -.53.44c-1.11-1.33-1.12-9.25.11-15.73 2.33 11.19.97 14.48.42 15.29z"/></svg>