<svg viewBox="0 0 144.27 31.89" xmlns="http://www.w3.org/2000/svg"><path d="m42.54 8.81h6.08c3.37 0 5.12 1.39 5.12 4v.08a3.16 3.16 0 0 1 -2.5 3.31 3.4 3.4 0 0 1 3.09 3.64v.16c0 2.84-1.86 4.33-5.43 4.33h-6.36zm5.52 6.36c1.68 0 2.35-.6 2.35-2v-.07c0-1.3-.73-1.89-2.38-1.89h-2.03v4zm.3 6.69c1.73 0 2.51-.78 2.51-2.19v-.08c0-1.43-.78-2.17-2.68-2.17h-2.19v4.44z"/><path d="m55.24 21.14c0-2.64 2.42-3.63 5.89-3.63h1.27v-.46c0-1.34-.4-2.05-1.84-2.05a1.7 1.7 0 0 0 -1.92 1.6h-3c.2-2.68 2.32-3.87 5.09-3.87s4.73 1.12 4.73 4.19v7.38h-3v-1.38a3.82 3.82 0 0 1 -3.46 1.6c-2 0-3.76-1-3.76-3.38zm7.16-.82v-.95h-1.21c-1.82 0-2.88.39-2.88 1.6 0 .82.5 1.36 1.65 1.36 1.38 0 2.44-.75 2.44-2.01z"/><path d="m66.82 20.73h2.92c.13 1 .63 1.6 2 1.6 1.21 0 1.77-.45 1.77-1.23s-.67-1.1-2.29-1.34c-3-.46-4.18-1.32-4.18-3.53s2.17-3.52 4.48-3.52c2.51 0 4.39.9 4.67 3.5h-2.88a1.53 1.53 0 0 0 -1.78-1.36c-1 0-1.6.47-1.6 1.17s.54 1 2.19 1.23c2.83.41 4.39 1.12 4.39 3.55s-1.77 3.72-4.76 3.72-4.82-1.34-4.93-3.79z"/><path d="m77.31 18.76v-.17a5.61 5.61 0 0 1 5.82-5.88c2.92 0 5.52 1.71 5.52 5.75v.87h-8.16c.09 1.88 1.11 3 2.81 3 1.45 0 2.17-.63 2.36-1.58h3c-.36 2.44-2.31 3.81-5.4 3.81-3.46-.04-5.95-2.18-5.95-5.8zm8.29-1.36c-.11-1.71-1-2.53-2.47-2.53a2.58 2.58 0 0 0 -2.59 2.53z"/><path d="m89.47 18.76v-.17a5.62 5.62 0 0 1 5.84-5.88c2.62 0 5 1.14 5.32 4.39h-3a2.09 2.09 0 0 0 -2.29-1.93c-1.62 0-2.71 1.21-2.71 3.38v.17c0 2.27 1 3.44 2.77 3.44a2.31 2.31 0 0 0 2.47-2.16h2.83c-.17 2.69-2.12 4.55-5.41 4.55s-5.82-2.09-5.82-5.79z"/><path d="m101.44 21.14c0-2.64 2.42-3.63 5.88-3.63h1.28v-.46c0-1.34-.41-2.07-1.84-2.07a1.71 1.71 0 0 0 -1.93 1.6h-3c.2-2.68 2.31-3.87 5.08-3.87s4.74 1.12 4.74 4.19v7.38h-3v-1.36a3.84 3.84 0 0 1 -3.42 1.6c-2.06 0-3.79-1-3.79-3.38zm7.16-.82v-.95h-1.21c-1.82 0-2.88.39-2.88 1.6 0 .82.5 1.36 1.64 1.36 1.39 0 2.45-.75 2.45-2.01z"/><path d="m113.66 13h3.13v1.7a3.87 3.87 0 0 1 3.47-2 3.1 3.1 0 0 1 3.15 2 4.48 4.48 0 0 1 3.81-2c2.1 0 3.72 1.32 3.72 4.32v7.25h-3.11v-6.9c0-1.45-.65-2.1-1.78-2.1a2.1 2.1 0 0 0 -2.18 2.32v6.68h-3.12v-6.9c0-1.45-.67-2.1-1.77-2.1a2.11 2.11 0 0 0 -2.19 2.32v6.68h-3.13z"/><path d="m132.59 13h3.14v1.77a4.21 4.21 0 0 1 3.61-2c2.77 0 4.93 2 4.93 5.79v.18c0 3.74-2.12 5.84-4.93 5.84a4 4 0 0 1 -3.61-2v5.58h-3.14zm8.5 5.73v-.17c0-2.3-1.12-3.42-2.7-3.42s-2.77 1.14-2.77 3.42v.17c0 2.27 1.08 3.37 2.79 3.37s2.68-1.2 2.68-3.4z"/><path d="m19.3 31.89a20.56 20.56 0 0 1 -15.63-6.89 1.7 1.7 0 0 1 -.33-1.73c1.07-2.88 4-9.58 7.66-9.6 1.86 0 3.25 1.48 4.37 2.66a12.93 12.93 0 0 0 1.19 1.16 29.7 29.7 0 0 0 3.9-6.49 1.7 1.7 0 0 1 3.08 1.43c-4 8.57-6.14 8.57-6.84 8.57-1.56 0-2.69-1.2-3.78-2.35-.49-.52-1.51-1.6-1.9-1.6-.87.15-2.76 3.14-4.12 6.42a17 17 0 0 0 12.4 5c6.71 0 11.72-1.83 13.88-5-.74-8.47-5.44-20.08-13.88-20.08-7.15 0-12.53 5-16 14.8a1.7 1.7 0 0 1 -3.2-1.13c4-11.32 10.46-17.06 19.2-17.06 11.41 0 16.7 14.58 17.31 23.78a1.79 1.79 0 0 1 -.22 1c-2.66 4.57-8.73 7.11-17.09 7.11z"/></svg>