<svg fill="none" height="56" viewBox="0 0 56 56" width="56" xmlns="http://www.w3.org/2000/svg"><path d="m5.71429 2c2.05134 0 3.71428 1.66294 3.71428 3.71429v31.57141c0 1.8131-1.29974 3.3191-3.01786 3.6454v12.3725c0 .3846-.31179.6964-.69642.6964-.38464 0-.69643-.3118-.69643-.6964v-12.3725c-1.71812-.3263-3.01786-1.8323-3.01786-3.6454v-31.57141c0-2.05135 1.66294-3.71429 3.71429-3.71429zm11.14281 0c2.0514 0 3.7143 1.66294 3.7143 3.71429v44.57141c0 2.0514-1.6629 3.7143-3.7143 3.7143-2.0513 0-3.7142-1.6629-3.7142-3.7143v-44.57141c0-2.05135 1.6629-3.71429 3.7142-3.71429zm11.1429 0c2.0514 0 3.7143 1.66294 3.7143 3.71429v38.07141c0 1.8131-1.2998 3.3191-3.0179 3.6454v5.8725c0 .3846-.3118.6964-.6964.6964s-.6964-.3118-.6964-.6964v-5.8725c-1.7181-.3263-3.0179-1.8323-3.0179-3.6454v-38.07141c0-2.05135 1.6629-3.71429 3.7143-3.71429zm11.1429 0c2.0514 0 3.7142 1.66294 3.7142 3.71429v25.07141c0 1.8131-1.2998 3.3191-3.0178 3.6454v18.8725c0 .3846-.3118.6964-.6964.6964-.3847 0-.6965-.3118-.6965-.6964v-18.8725c-1.718-.3263-3.0178-1.8323-3.0178-3.6454v-25.07141c0-2.05135 1.6629-3.71429 3.7143-3.71429zm11.1428 0c2.0514 0 3.7143 1.66294 3.7143 3.71429v31.57141c0 1.8131-1.2998 3.3191-3.0179 3.6454v12.3725c0 .3846-.3118.6964-.6964.6964s-.6964-.3118-.6964-.6964v-12.3725c-1.7181-.3263-3.0179-1.8323-3.0179-3.6454v-31.57141c0-2.05135 1.6629-3.71429 3.7143-3.71429z" fill="#000"/></svg>
