<svg fill="none" height="32" viewBox="0 0 145 32" width="145" xmlns="http://www.w3.org/2000/svg"><g fill="#000"><path d="m10.7011 30.145c2.6967 1.1888 5.6175 1.7839 8.5643 1.745 8.36 0 14.43-2.54 17.09-7.11.1692-.3048.2456-.6524.22-1-.61-9.2-5.9-23.78-17.31-23.78-8.74 0-15.19996 5.74-19.1999613 17.06-.1189506.4162-.07462805.8622.1239273 1.2469.198555.3846.536384.6791.944584.8232.40819.1442.856.1271 1.25209-.0476.39608-.1746.7106-.4939.8794-.8925 3.47-9.8 8.84996-14.8 15.99996-14.8 8.44 0 13.14 11.61 13.88 20.08-2.16 3.17-7.17 5-13.88 5-2.2975.048-4.5809-.3704-6.7121-1.2298-2.1313-.8594-4.06623-2.142-5.68786-3.7702 1.36-3.28 3.24996-6.27 4.11996-6.42.39 0 1.41 1.08 1.9 1.6l.0154.0162c1.0853 1.145 2.212 2.3338 3.7646 2.3338.7 0 2.84 0 6.84-8.57.1638-.4043.1659-.8561.0058-1.2619-.16-.4058-.4699-.7345-.8655-.9182-.3957-.1837-.8468-.2083-1.2601-.0686-.4132.1396-.757.4327-.9602.8187-1.0178 2.3209-2.3284 4.5019-3.9 6.49-.4211-.3608-.8186-.7482-1.19-1.16l-.0262-.0276c-1.1154-1.1754-2.4982-2.6324-4.3438-2.6324-3.65996.02-6.58996 6.72-7.65996 9.6-.10822.291-.13467.6061-.0765.9111.05818.3049.19876.5882.4065.8189 1.95924 2.2016 4.36888 3.9562 7.06566 5.145z"/><path clip-rule="evenodd" d="m42.5059 8.81006h6.08c3.37 0 5.12 1.39004 5.12 4.00004v.08c.0526.7604-.1715 1.5143-.6309 2.1226s-1.1233 1.03-1.8691 1.1874c.89.0789 1.7132.5051 2.2914 1.1863.5783.6812.8651 1.5626.7986 2.4537v.16c0 2.84-1.86 4.33-5.43 4.33h-6.36zm5.52 6.36004c1.68 0 2.35-.6 2.35-2v-.07c0-1.3-.73-1.89-2.38-1.89h-2.03v4zm.3 6.69c1.73 0 2.51-.78 2.51-2.19v-.08c0-1.43-.78-2.17-2.68-2.17h-2.19v4.44z" fill-rule="evenodd"/><path clip-rule="evenodd" d="m55.2061 21.14c0-2.64 2.42-3.63 5.89-3.63h1.27v-.46c0-1.34-.4-2.05-1.84-2.05-.2328-.0307-.4695-.0128-.695.0525-.2256.0653-.4351.1766-.6155.3269s-.3277.3364-.4326.5465c-.1049.21-.1651.4396-.1769.6741h-3c.2-2.68 2.32-3.87 5.09-3.87s4.73 1.12 4.73 4.19v7.38h-3v-1.38c-.3862.5463-.909.9816-1.5162 1.2624s-1.2775.3972-1.9438.3376c-2 0-3.76-1-3.76-3.38zm7.16-.82v-.95h-1.21c-1.82 0-2.88.39-2.88 1.6 0 .82.5 1.36 1.65 1.36 1.38 0 2.44-.75 2.44-2.01z" fill-rule="evenodd"/><path d="m69.7061 20.73h-2.92c.11 2.45 1.94 3.79 4.93 3.79s4.76-1.29 4.76-3.72-1.56-3.14-4.39-3.55c-1.65-.23-2.19-.53-2.19-1.23s.6-1.17 1.6-1.17c.2072-.0354.4195-.0276.6235.0227.2041.0503.3956.1421.5626.2697s.306.2883.4081.472c.1022.1836.1655.3864.1858.5956h2.88c-.28-2.6-2.16-3.5-4.67-3.5-2.31 0-4.48 1.31-4.48 3.52s1.18 3.07 4.18 3.53c1.62.24 2.29.56 2.29 1.34s-.56 1.23-1.77 1.23c-1.37 0-1.87-.6-2-1.6z"/><path clip-rule="evenodd" d="m77.2762 18.7602v-.17c-.038-.7771.0861-1.5536.3643-2.2802s.7045-1.3874 1.2519-1.9404c.5473-.553 1.2037-.9861 1.9274-1.2718.7237-.2856 1.499-.4176 2.2764-.3876 2.92 0 5.52 1.71 5.52 5.75v.87h-8.16c.09 1.88 1.11 3 2.81 3 1.45 0 2.17-.63 2.36-1.58h3c-.36 2.44-2.31 3.81-5.4 3.81-3.46-.04-5.95-2.18-5.95-5.8zm8.29-1.36c-.11-1.71-1-2.53-2.47-2.53-.6774-.0027-1.3287.2611-1.8133.7344-.4846.4734-.7635 1.1183-.7767 1.7956z" fill-rule="evenodd"/><path d="m89.4359 18.5901v.17c0 3.7 2.53 5.79 5.82 5.79s5.2401-1.86 5.4101-4.55h-2.8301c-.019.3045-.0982.6022-.2329.8759s-.3223.5181-.5519.7189c-.2297.2008-.4968.3541-.7861.4512-.2892.097-.5948.1357-.8991.114-1.77 0-2.77-1.17-2.77-3.44v-.17c0-2.17 1.09-3.38 2.71-3.38.2778-.0274.5583.0011.8249.0838.2666.0828.5139.2181.7274.398.2134.1799.3887.4007.5154.6495.1267.2487.2023.5203.2223.7987h3.0001c-.32-3.25-2.7001-4.39-5.3201-4.39-.7787-.0314-1.5555.0996-2.2809.3845s-1.3836.7176-1.9328 1.2706-.9774 1.2141-1.2574 1.9415c-.2799.7273-.4056 1.5049-.3689 2.2834z"/><path clip-rule="evenodd" d="m101.406 21.14c0-2.64 2.42-3.63 5.88-3.63h1.28v-.46c0-1.34-.41-2.07-1.84-2.07-.233-.0307-.47-.0128-.696.0524s-.437.1764-.618.3266c-.181.1501-.329.3361-.435.5462s-.168.4398-.181.6748h-3c.2-2.68 2.31-3.87 5.08-3.87s4.74 1.12 4.74 4.19v7.38h-3v-1.36c-.384.5387-.9.969-1.5 1.2493-.599.2804-1.26.4011-1.92.3507-2.06 0-3.79-1-3.79-3.38zm7.16-.82v-.95h-1.21c-1.82 0-2.88.39-2.88 1.6 0 .82.5 1.36 1.64 1.36 1.39 0 2.45-.75 2.45-2.01z" fill-rule="evenodd"/><path d="m116.756 12.9999h-3.13v11.27h3.13v-6.68c-.03-.3011.004-.6052.102-.8917.097-.2864.255-.5486.463-.7687.208-.22.46-.3928.741-.5066.28-.1138.582-.166.884-.153 1.1 0 1.77.65 1.77 2.1v6.9h3.12v-6.68c-.032-.3006.001-.6045.098-.891.096-.2865.253-.5488.46-.7691.207-.2202.459-.3932.739-.5071s.581-.166.883-.1528c1.13 0 1.78.65 1.78 2.1v6.9h3.11v-7.25c0-3-1.62-4.32-3.72-4.32-.752-.0132-1.495.1631-2.161.5126s-1.233.861-1.649 1.4874c-.237-.6302-.672-1.1662-1.24-1.527-.569-.3608-1.239-.5269-1.91-.473-.706-.0149-1.402.1637-2.014.5162s-1.115.8656-1.456 1.4838z"/><path clip-rule="evenodd" d="m132.556 13.0001h3.14v1.77c.379-.6152.911-1.1224 1.543-1.4727s1.344-.5319 2.067-.5273c2.77 0 4.93 2 4.93 5.79v.18c0 3.74-2.12 5.84-4.93 5.84-.727.0263-1.447-.1461-2.083-.4985s-1.164-.8715-1.527-1.5015v5.58h-3.14zm8.5 5.7v-.14c0-2.3-1.12-3.42-2.7-3.42s-2.77 1.14-2.77 3.42v.17c0 2.27 1.08 3.37 2.79 3.37s2.68-1.2 2.68-3.4z" fill-rule="evenodd"/></g></svg>
