<svg class="nav__icon" viewBox="0 0 340 340" xmlns="http://www.w3.org/2000/svg"><path d="m329.59 0h-319.18a10.41 10.41 0 0 0 -10.41 10.41v43.8h170a115.79 115.79 0 0 1 96.35 180h73.65v-223.8a10.41 10.41 0 0 0 -10.41-10.41z"/><path d="m54.21 170a115.2 115.2 0 0 1 19.44-64.22h-73.65v223.81a10.41 10.41 0 0 0 10.41 10.41h319.18a10.41 10.41 0 0 0 10.41-10.41v-43.8h-170a115.79 115.79 0 0 1 -115.79-115.79z"/><path d="m69.83 174.54a12.5 12.5 0 0 0 7.47 16c19.35 7 34.76 9.8 47.46 9.8 1 0 1.95 0 2.9-.06a52.27 52.27 0 0 0 10.25 10.72 124.22 124.22 0 0 1 -22 17.2 12.5 12.5 0 0 0 13.38 21.12c14.53-9.21 25.06-18.6 32.73-27.84a53.25 53.25 0 0 0 7.93.6c1.72 0 3.42-.09 5.1-.25a93.49 93.49 0 0 1 -2 12.39c-.8 3.51-1.81 7.25-3.07 11.27-.86 2.76-1.83 5.64-2.93 8.66a12.47 12.47 0 0 0 2.95 13.12 12.33 12.33 0 0 0 4.54 2.9 12.48 12.48 0 0 0 16-7.47 174.81 174.81 0 0 0 8-28.48 102 102 0 0 0 1.77-21.87 52.72 52.72 0 0 0 10.69-10.27 124.61 124.61 0 0 1 17.19 22 12.5 12.5 0 0 0 21.12-13.38c-8.72-13.76-17.9-24.59-27.83-32.8a52.22 52.22 0 0 0 .59-7.86c0-1.72-.09-3.42-.25-5.1 8.72.79 19.2 3.26 32.32 8a12.5 12.5 0 0 0 8.55-23.49c-20.85-7.59-37.11-10.18-50.35-9.73a52.47 52.47 0 0 0 -10.26-10.72 124.61 124.61 0 0 1 22-17.19 12.5 12.5 0 0 0 -13.38-21.12c-13.76 8.72-24.59 17.9-32.8 27.83a53.56 53.56 0 0 0 -7.86-.59c-1.72 0-3.42.09-5.1.25a93.49 93.49 0 0 1 2-12.39c.8-3.51 1.81-7.25 3.07-11.27.86-2.76 1.83-5.63 2.93-8.66a12.47 12.47 0 0 0 -2.94-13.13 12.33 12.33 0 0 0 -4.54-2.9 12.5 12.5 0 0 0 -16 7.47 174.81 174.81 0 0 0 -8 28.48 102 102 0 0 0 -1.77 21.87 52.37 52.37 0 0 0 -10.69 10.26 124.22 124.22 0 0 1 -17.2-22 12.5 12.5 0 1 0 -21.12 13.38c9.21 14.53 18.6 25.06 27.84 32.73a53.15 53.15 0 0 0 -.6 7.93c0 1.72.09 3.42.25 5.1-8.72-.79-19.2-3.26-32.32-8a12.5 12.5 0 0 0 -16.02 7.49zm114.79-28.4a28 28 0 0 1 12.59 17.35 28.44 28.44 0 0 1 .68 4.26c.05.74.09 1.49.09 2.25a28 28 0 0 1 -21.38 27.19 27 27 0 0 1 -4.35.7c-.74.05-1.49.09-2.25.09a27.81 27.81 0 0 1 -14.61-4.11 28.51 28.51 0 0 1 -3.46-2.51 28 28 0 0 1 -9.12-14.76 27 27 0 0 1 -.7-4.35c-.05-.74-.09-1.49-.09-2.25a27.86 27.86 0 0 1 4.12-14.62 26.59 26.59 0 0 1 2.5-3.45 27.92 27.92 0 0 1 14.85-9.14 28.44 28.44 0 0 1 4.26-.68c.74-.05 1.49-.09 2.25-.09a27.86 27.86 0 0 1 14.62 4.12z"/></svg>