<svg class="nav__title" viewBox="0 0 201.22 48.69" xmlns="http://www.w3.org/2000/svg"><path d="m4.55 48.11 6.18-35.48h-10.73l2.11-12.05h35.24l-2.11 12.05h-10.73l-6.18 35.48z"/><path d="m54.83.58-6.24 35.89h8.11l6.3-35.89h13.77l-6.52 37.51a15.83 15.83 0 0 1 -1.82 5.34 9.44 9.44 0 0 1 -3.09 3.24 11.58 11.58 0 0 1 -4.29 1.59 31.14 31.14 0 0 1 -5.43.43h-10.29a28 28 0 0 1 -5.21-.43 8.16 8.16 0 0 1 -3.74-1.59 5.69 5.69 0 0 1 -1.93-3.24 13.39 13.39 0 0 1 .08-5.34l6.52-37.51z"/><path d="m74.93 48.11 8.29-47.53h22.78a26.1 26.1 0 0 1 5.19.47 8.41 8.41 0 0 1 3.81 1.68 6.18 6.18 0 0 1 2 3.26 12.89 12.89 0 0 1 0 5.28l-1.59 9.24a16.21 16.21 0 0 1 -1.07 3.56 10.24 10.24 0 0 1 -1.7 2.68 8.6 8.6 0 0 1 -2.36 1.86 17.11 17.11 0 0 1 -2.88 1.2h-.41l6.89 18.3h-15.18l-5.26-16.26h-1.9l-2.82 16.26zm18.44-26.69h5.81a3.28 3.28 0 0 0 1-.15 2.76 2.76 0 0 0 .82-.42 2 2 0 0 0 .56-.7 5.62 5.62 0 0 0 .34-.93l.88-5.16a2.54 2.54 0 0 0 0-.92 1.39 1.39 0 0 0 -.32-.68 1.53 1.53 0 0 0 -.65-.42 2.61 2.61 0 0 0 -1-.16h-5.81z"/><path d="m116.46 48.11 8.28-47.53h24a19 19 0 0 1 4.89.56 7.86 7.86 0 0 1 3.47 1.8 6.26 6.26 0 0 1 1.78 3.32 13.74 13.74 0 0 1 0 5.11l-.55 3a17.28 17.28 0 0 1 -.86 3.23 11.1 11.1 0 0 1 -1.47 2.64 10.3 10.3 0 0 1 -2.09 2.08 10.79 10.79 0 0 1 -2.8 1.48 7.78 7.78 0 0 1 2.63 1.49 5.77 5.77 0 0 1 1.49 2.23 8.55 8.55 0 0 1 .51 3 19.76 19.76 0 0 1 -.32 3.56l-.51 3.13a16.2 16.2 0 0 1 -1.73 5.16 10.23 10.23 0 0 1 -3 3.38 11.78 11.78 0 0 1 -4.09 1.83 21.59 21.59 0 0 1 -5.08.56zm15.54-10.29h6.18a4.12 4.12 0 0 0 1.29-.17 2.38 2.38 0 0 0 .92-.49 2.12 2.12 0 0 0 .59-.83 4.66 4.66 0 0 0 .33-1.16l.61-3.56a2.71 2.71 0 0 0 -.21-2.11 2.43 2.43 0 0 0 -2-.61h-6.18zm3.26-18.67h5.88a4.6 4.6 0 0 0 1.3-.17 2.36 2.36 0 0 0 .92-.48 2.18 2.18 0 0 0 .59-.83 5.32 5.32 0 0 0 .38-1.27l.47-2.95a4.24 4.24 0 0 0 .09-1.18 1.59 1.59 0 0 0 -.31-.81 1.5 1.5 0 0 0 -.76-.49 3.84 3.84 0 0 0 -1.26-.17h-5.87z"/><path d="m163.92 10.25a14.71 14.71 0 0 1 1.82-5.14 9.37 9.37 0 0 1 3.11-3.11 12.26 12.26 0 0 1 4.29-1.58 31.05 31.05 0 0 1 5.28-.42h11.48a29 29 0 0 1 5.18.42 8.81 8.81 0 0 1 3.77 1.58 6 6 0 0 1 2.07 3.12 11.27 11.27 0 0 1 0 5.14l-4.84 27.74a15.27 15.27 0 0 1 -1.79 5.29 9.53 9.53 0 0 1 -3.1 3.26 12.06 12.06 0 0 1 -4.31 1.65 29.47 29.47 0 0 1 -5.47.46h-11.48a27 27 0 0 1 -5.31-.46 8.05 8.05 0 0 1 -3.7-1.65 5.87 5.87 0 0 1 -1.9-3.26 13.63 13.63 0 0 1 0-5.29zm9.2 26.22h9.38l4.27-24.25h-9.37z"/></svg>