<svg fill="none" height="72" viewBox="0 0 72 72" width="72" xmlns="http://www.w3.org/2000/svg"><path clip-rule="evenodd" d="m2.13712 37.7018c-.15099.039-.79747.1913-1.422716-.2582-.441452-.3174-.612881-.7509-.6741265-1.0373-.0582003-.2722-.04098067-.5051-.0241841-.6394.0339006-.2708.1181596-.5181.1821156-.6865.137439-.3618.353043-.7948.599822-1.2508.503849-.931 1.264469-2.1876 2.178599-3.6371 2.16482-3.4327 7.27147-10.6805 10.64717-15.4255.9143-1.2852 1.3715-1.9279 1.3481-2.0077-.0202-.0689-.0792-.1169-.1508-.1226-.0829-.0067-.6206.5737-1.6961 1.7346-1.9243 2.0769-4.06845 4.3006-5.03708 4.9886-.11669.0828-.25029.1713-.39159.2485-.1147.0628-.35393.186-.65824.24-.2809.0498-1.14185.1068-1.70237-.6879-.426-.6039-.30178-1.2368-.27609-1.3677l.00035-.0018c.14092-.7182.734-1.2329 1.42567-1.3063 3.87835-3.1725 7.16065-7.07532 10.80535-10.50543.7088-.6671 1.3543-1.24814 1.8621-1.64969.2441-.193.5177-.39399.7835-.53901.1237-.06748.34-.17601.6074-.23496.2117-.04667.9153-.16119 1.5317.38115.5051.44441.5626 1.00931.5699 1.21655.0084.24114-.0343.43924-.0602.54291-.0548.21995-.1422.42806-.2118.58132-.1489.32772-.3708.73507-.6299 1.18185-.5262.90761-1.3046 2.14621-2.2364 3.58701-2.328 3.6002-6.4131 9.7634-8.7679 13.3072-.4896.7369-.7344 1.1053-.7098 1.1834.021.0668.0803.114.1501.1195.0816.0064.386-.3152.9948-.9582 4.199-4.4358 13.2889-13.9899 18.5742-19.18669 1.6482-1.62065 3.0776-2.97465 4.1486-3.89645.5276-.45416 1.0142-.843575 1.4194-1.109077.1922-.125947.4457-.277519.723-.37851.1376-.0500974.3638-.11894434.6401-.12685207.2845-.00814104.7451.04833397 1.1648.39298207.4494.369019.5869.849147.6214 1.153437.0328.28967-.0099.53426-.0426.67773-.0666.29212-.1887.56767-.2915.7767-.2179.44315-.5533.99028-.9521 1.59247-.8092 1.22206-2.0193 2.87908-3.4778 4.804-2.1604 2.85146-7.1188 9.07136-10.6881 13.52706-1.0813 1.3499-1.622 2.0248-1.6019 2.1068.0171.0701.0759.1217.1475.1297.084.0093.6844-.6145 1.8853-1.8621 3.6826-3.8257 8.6565-8.9647 10.9702-11.2315 1.6621-1.6283 3.1024-2.98716 4.179-3.90857.53-.45351 1.0201-.84298 1.4285-1.10654.1925-.12424.4531-.27774.7409-.37639.1428-.04894.3829-.1167.676-.11306.311.00385.7791.09396 1.1803.47293.553.52233.54 1.17505.5258 1.37525-.018.25324-.086.4616-.1273.57592-.0888.24527-.2195.49327-.3401.70452-.2532.44324-.6326 1.01714-1.0945 1.67784-.9328 1.334-2.3058 3.1682-3.957 5.3202-3.2212 4.1981-8.5901 11.0117-12.691 16.1948-1.5236 1.9257-2.2854 2.8885-2.264 2.971.0182.0704.0784.1215.1509.1278.0849.0075.908-.9011 2.5542-2.7183 5.7068-6.2996 14.0948-15.5046 19.2015-20.8596 2.1621-2.2673 4.0232-4.15428 5.4063-5.44002.6843-.63618 1.2931-1.16424 1.7833-1.52047.2347-.17051.5168-.35715.8109-.48512.144-.06263.378-.15046.6645-.17731.2895-.02714.8032-.0035 1.2744.37189.7158.57023.6383 1.37989.6216 1.52885-.0281.2508-.104.45698-.1469.56472-.095.23878-.2326.4897-.365.71396-.2771.46936-.6939 1.09197-1.2083 1.82319-1.037 1.47391-2.562 3.51791-4.4003 5.92871-4.7012 6.1652-12.8196 16.5878-17.6861 22.8214-1.0627 1.3611-1.594 2.0417-1.5728 2.1235.0181.0699.0778.1208.1496.1277.0842.0081.673-.6239 1.8506-1.888 5.323-5.7136 14.171-15.1793 19.4558-20.6629 2.0894-2.168 3.8656-3.9745 5.1552-5.2188.6401-.6177 1.1863-1.1221 1.602-1.4672.1993-.1654.4192-.3369.6306-.4663.0958-.0586.2747-.1621.4999-.2323l.0036-.0012c.1117-.0349.8881-.278 1.5907.2995.7165.589.6152 1.4111.597 1.5486-.0329.2484-.112.4528-.157.5609-.0998.2395-.2433.4933-.3833.7234-.2923.4805-.7314 1.1198-1.2743 1.873-1.0938 1.5176-2.7003 3.623-4.6357 6.1074-4.5553 5.8476-12.7144 16.0178-18.0754 22.6776-1.4105 1.7522-2.1157 2.6282-2.0952 2.7108.0174.0705.077.122.1493.1293.0846.0084.8511-.8151 2.3839-2.4622 5.0864-5.4654 12.3785-13.2503 16.6729-17.6081 2.0252-2.0552 3.7732-3.7651 5.0755-4.9252.6432-.5729 1.2231-1.0529 1.696-1.3751.2252-.1535.5077-.3282.8088-.443.1486-.0567.3914-.1342.6868-.1433.3087-.0095.798.0567 1.2284.4363.5168.4558.5756 1.0384.5762 1.2897.0006.2687-.059.4902-.0964.6114-.0791.256-.2022.5051-.3092.7039-.2263.4204-.5672.9532-.9766 1.554-.8287 1.216-2.0549 2.8789-3.5298 4.822-3.2696 4.3071-9.0656 11.669-12.8762 16.4883-1.0013 1.2664-1.502 1.8996-1.4816 1.9813.0174.0698.0763.1211.1478.1289.0838.0091.6428-.5725 1.761-1.7357 4.3806-4.5573 11.1753-11.5912 15.1744-15.5575 1.7642-1.7497 3.2769-3.2096 4.3897-4.2099.5501-.4945 1.0376-.9087 1.4248-1.1927.1835-.1346.4103-.2895.6465-.4029.111-.0534.3164-.1435.5753-.1842.2289-.0361.8385-.0832 1.3845.3828.5774.4929.6019 1.1428.5919 1.3785-.0113.268-.0806.4866-.1213.602-.0876.2483-.2182.4938-.3339.6947-.2444.4244-.6109.9695-1.0542 1.5915-.8962 1.2577-2.2182 2.985-3.8086 5.0092-3.7211 4.7358-10.4233 12.975-14.7701 18.2975-1.1093 1.3583-1.664 2.0375-1.6447 2.1197.0166.0703.0749.1224.1465.131.0839.0101.6986-.6182 1.9282-1.8748 3.8598-3.9447 9.2457-9.4182 12.4115-12.5013 1.6053-1.5634 2.9859-2.8705 4.0056-3.7665.5034-.4423.9558-.8172 1.3205-1.0759.1722-.1222.3926-.2677.6269-.374.1113-.0505.3149-.1341.5713-.1684.2343-.0314.802-.0571 1.3206.3692.4269.351.5645.8016.605 1.0805.039.269.0086.4952-.0151.6242-.0482.2617-.1427.4992-.214.6622-.1531.3498-.3858.7676-.6508 1.2083-.5407.8993-1.3484 2.1107-2.3152 3.5074-2.3545 3.4012-6.9977 9.6306-9.9876 13.6116-.7892 1.0508-1.1838 1.5762-1.1631 1.6561.0178.069.0744.1186.1451.1273.0819.01.5529-.4518 1.495-1.3753 1.5381-1.5079 3.2549-3.1242 4.2665-3.8648.1083-.0792.2287-.1626.3523-.236.092-.0547.312-.1822.5922-.251.1355-.0333.4473-.0953.8251-.0017.4678.1159.9008.4413 1.1223.9427.179.4054.1483.7676.1266.9244-.025.1811-.0738.3273-.1071.4162-.2098.559-.6942.9349-1.2425 1.0319-3.993 3.2327-7.4802 7.0759-11.3568 10.4469-.7508.6529-1.4398 1.2215-1.9873 1.6103-.2632.1869-.5622.3821-.856.5168-.1396.064-.3732.1596-.6567.1973-.2588.0344-.8859.059-1.4275-.4342-.4277-.3895-.5272-.8671-.549-1.1209-.022-.2565.016-.4695.0426-.5891.0547-.2453.1496-.4704.2229-.6297.1568-.3405.3915-.7517.6607-1.1909.5482-.8946 1.3618-2.1025 2.3345-3.4981 2.0999-3.0129 7.2364-9.6965 10.6802-14.1409.905-1.1679 1.3574-1.7518 1.3366-1.8331-.0178-.0695-.0766-.1203-.1479-.1279-.0835-.0088-.5951.5224-1.6183 1.5849-5.291 5.4942-14.7442 15.266-19.2574 19.6585-1.6082 1.5652-2.9923 2.8745-4.0164 3.7731-.5057.4437-.9603.8199-1.3272 1.0799-.1739.1232-.3941.2681-.6273.3745-.1115.0508-.3105.1326-.5601.1686-.2248.0323-.7734.0662-1.2913-.3285-.5309-.4046-.6522-.9636-.6712-1.269-.0184-.295.0392-.5398.0766-.6732.0783-.2796.2088-.5482.32-.7571.2363-.4438.597-1.0037 1.0304-1.6317.878-1.2724 2.1851-3.0113 3.7616-5.0418 3.0254-3.8968 9.3097-11.5438 13.9679-17.1756 1.5405-1.8624 2.3107-2.7936 2.2912-2.8765-.0166-.0708-.0756-.1231-.1479-.1312-.0846-.0094-.9164.8664-2.5799 2.6179-4.7504 5.0016-11.0344 11.5832-14.2276 14.7809-1.7539 1.7563-3.2514 3.2223-4.3452 4.23-.5415.4989-1.0144.9137-1.3832 1.1992-.175.1354-.385.2879-.5983.4031-.0974.0527-.2869.1486-.5284.2037-.1693.0387-.8709.1752-1.4934-.3621-.478-.4125-.577-.9402-.5925-1.2185-.0154-.2783.036-.5103.0713-.6422.0732-.2734.1954-.5358.3004-.7409.2222-.434.5603-.9774.9648-1.5836.8197-1.2283 2.0385-2.901 3.5065-4.8501 3.1347-4.1624 9.6454-12.2754 14.4157-18.1776 1.5298-1.8928 2.2948-2.8392 2.2743-2.9219-.0175-.0707-.0772-.1223-.1496-.1294-.0848-.0084-.909.8828-2.5574 2.6652-6.4096 6.9307-16.2147 17.5032-21.259 22.792-1.9897 2.0862-3.685 3.8268-4.9214 5.0245-.613.5938-1.1421 1.0824-1.5505 1.4172-.1952.16-.4182.3312-.639.4601-.1012.0591-.29.1623-.5291.2269-.156.0422-.87.2184-1.5244-.3094-.5385-.4343-.6319-1.0182-.6415-1.3045-.0098-.2905.0504-.5346.0913-.6748.0859-.2939.2279-.5889.3603-.8382.2778-.523.7057-1.1963 1.231-1.9686 1.0611-1.5601 2.6408-3.6997 4.5512-6.2065 3.9854-5.2298 12.1299-15.3049 17.7271-22.1859 1.5799-1.9423 2.3698-2.9134 2.3495-2.9962-.0173-.0707-.0769-.1226-.1493-.1299-.0848-.0085-.9357.9081-2.6374 2.7412-5.6334 6.0687-13.6084 14.6238-17.7223 18.8729-2.0928 2.1615-3.8743 3.9611-5.1707 5.197-.643.6131-1.1952 1.115-1.6188 1.4572-.2024.1635-.4315.3368-.6562.466-.1021.0587-.2957.1632-.5404.2266-.1558.0403-.913.2187-1.5709-.3692-.5729-.5121-.5762-1.1726-.5649-1.3848.0139-.2616.0813-.4791.1237-.6012.0907-.2612.2281-.5298.3589-.7647.2737-.4912.6881-1.1319 1.1976-1.8751 1.0278-1.4994 2.5455-3.5641 4.3764-5.9893 4.1679-5.5209 12.5257-16.0767 18.3491-23.3934 1.693-2.1271 2.5395-3.1907 2.5182-3.2734-.0182-.0706-.0787-.1218-.1513-.128-.0851-.0074-.9951 1.0047-2.8151 3.029-6.5217 7.2534-16.1303 17.8928-21.1858 23.2649-2.1487 2.2833-3.9897 4.187-5.3474 5.4931-.67295.6472-1.26164 1.1813-1.72616 1.5454-.22288.1748-.4802.3608-.74051.4961-.12446.0646-.33397.1629-.594.2141-.23154.0456-.80706.1117-1.36141-.2852-.49689-.3557-.6639-.8576-.70866-1.1866-.04163-.306.00225-.5657.03525-.7148.06771-.3059.19623-.5987.30658-.8247.23423-.4798.59963-1.0811 1.04001-1.7518.89272-1.3596 2.23309-3.2138 3.8541-5.376 4.191-5.5901 13.0756-16.6413 18.6405-23.5196 1.3052-1.6133 1.9578-2.4199 1.9377-2.5023-.0171-.0704-.0763-.1222-.1484-.1299-.0843-.009-.7975.7448-2.2237 2.2522-5.0255 5.3118-12.3312 12.9994-15.9476 16.6415-1.6399 1.6515-3.04492 3.0325-4.07714 3.9813-.51021.469-.96277.8635-1.32215 1.136-.16984.1288-.382.2793-.60376.3923-.1032.0525-.29984.1451-.55038.1924-.20912.0395-.84.1177-1.41177-.3583-.55005-.4579-.61145-1.065-.61097-1.3233.00051-.274.06379-.4982.10186-.617.08111-.2532.20599-.4987.31298-.6925.22708-.4113.56835-.9336.97774-1.5226.82886-1.1925 2.0547-2.8261 3.52865-4.7363 3.50874-4.5473 10.85144-13.5243 15.87054-19.6244 1.3864-1.6849 2.0796-2.5273 2.06-2.61-.0167-.0707-.0757-.1229-.1478-.131-.0845-.0094-.8357.7791-2.3382 2.3562-5.1487 5.4043-12.5116 13.1087-16.19567 16.8512-1.61935 1.6451-3.00428 3.0219-4.01928 3.9718-.50232.4701-.94371.8638-1.29077 1.1373-.16491.13-.36379.2773-.5673.3907-.09411.0525-.27145.145-.49726.2032z" fill="#000" fill-rule="evenodd"/></svg>
