<svg fill="none" height="57" viewBox="0 0 123 57" width="123" xmlns="http://www.w3.org/2000/svg"><g fill="#000"><path clip-rule="evenodd" d="m37.2954 19.3476c1.6893-1.7609 3.8254-3.0295 6.18-3.67 1.0463-.3233 2.1617-.3505 3.2225-.0787s2.0256.8321 2.7875 1.6187c3.46 3.94 2.66 13.3-2.54 27.83-.1391.372-.4183.6748-.7778.8436-.3596.1687-.7709.19-1.146.0594-.3751-.1307-.6841-.403-.8609-.7587-.1769-.3557-.2075-.7664-.0853-1.1443 6.51-18.22 4.36-23.39 3.13-24.76-.3823-.3892-.8662-.663-1.3967-.7903-.5304-.1273-1.086-.103-1.6033.0703-2.3996.7344-4.4861 2.2474-5.93 4.3 2.12 8.61 3.69 18.45 1 22.36-.3149.4923-.7362.9078-1.2329 1.2158s-1.0561.5008-1.6371.5642c-.4577.0492-.9206-.0165-1.3466-.1911s-.8018-.4526-1.0934-.8089c-2.84-3.34-1.42-15.91.1-21.42.2127-.7534.5148-1.4786.9-2.16-.15-.59-.31-1.19-.48-1.81-2.72-9.95-7.19-17.55004-8.77-17.55004-1.21.7-4.39 7.40004 2.93 27.40004.1158.3657.0899.7616-.0725 1.1091-.1624.3476-.4494.6215-.8041.7674-.3548.1459-.7515.1533-1.1114.0206-.3599-.1328-.6568-.3958-.832-.7371-7.55-16.43-11.15-21.2-12.49-22.56004-.53 2.47004-.84 10.02004 8.16 26.54004.1738.344.2112.741.1049 1.1116-.1063.3705-.3486.6872-.6783.8868-.3298.1996-.7227.2674-1.1003.1898-.3776-.0775-.7119-.2948-.9363-.6082-.3195-.476-.6463-.9633-.9786-1.4588-4.1917-6.2508-9.24956-13.7931-11.37136-15.9612-.26 2.44.5 9.59 8.31996 21.44.2225.3294.3081.7325.2385 1.1239-.0695.3914-.2886.7403-.6109.973-.3224.2326-.7226.3307-1.116.2734-.3933-.0573-.749-.2654-.9916-.5803-5.56996-7.13-8.40996-8.82-9.40996-9.21.12 1.87 2.19 8.02 6.94 13.13 3.16996 3.43 8.39996 7.24 15.33996 5.9.197-.0381.3996-.037.5961.0032.1966.0402.3833.1187.5495.231.1663.1124.3087.2564.4193.4238.1105.1674.1871.355.2251.552.0381.1969.037.3995-.0032.5961-.0402.1965-.1187.3832-.231.5495-.1124.1662-.2564.3086-.4238.4192s-.355.1871-.552.2252c-1.1426.2276-2.3049.3415-3.47.34-8.37 0-14.13996-6.03-16.99996-9.95-3.49-4.76-6.39-11.81-5.000003-14.32.200232-.3624.488323-.6686.837793-.8905.34948-.2219.74912-.3524 1.16221-.3795 1.53459.0813 2.99529.6847 4.14 1.71-3.41-7.66-3.51-12.85-2.41-14.85.17445-.3707.44596-.6873.78575-.9162.33979-.2288.73518-.3615 1.14425-.3838 1.28-.05 2.39.58 5.99996 5.52-2.94996-9.16-1.77-13.43004-1.15-14.80004.1638-.39993.4397-.74395.7946-.99058s.7735-.38535 1.2054-.39942h.0027c.9211-.00001 2.9028-.00003 8.5873 10.39004-1.49-9.16004.21-14.03004 2.79-15.490041.4172-.242949.8869-.3816281 1.3691-.40426025.4823-.02263215.9628.07145115 1.4009.27426025 4.11 1.730001 8.34 12.160041 10.28 19.070041zm-1.06 24.67c.226-.0744.4154-.2316.53-.44.55-.81 1.91-4.1-.42-15.29-1.23 6.48-1.22 14.4-.11 15.73z" fill-rule="evenodd"/><path d="m114.766 9.41738h6.61c.196-.02543.396.00525.576.0885.179.08324.332.21566.44.38194.107.16628.166.35968.168.55778.003.1981-.051.3929-.154.5618l-9.62 20.85c-.453 1.0789-.707 2.2307-.75 3.4v9.09c0 .4703-.187.9216-.518 1.2551-.332.3335-.782.5222-1.252.5249h-6.16c-.234 0-.466-.0461-.682-.1355-.216-.0895-.412-.2206-.577-.3859s-.296-.3615-.386-.5774c-.089-.216-.135-.4475-.135-.6812v-9.09c-.04-1.1687-.291-2.3206-.74-3.4l-5.8404-12.69c-.2421-.4686-.6034-.8651-1.0476-1.1495s-.9555-.4467-1.4824-.4705h-9c-.2337 0-.4652.046-.6811.1355-.216.0894-.4122.2205-.5775.3858s-.2964.3615-.3859.5775c-.0894.216-.1355.4474-.1355.6812v2.2c0 .4721.1876.9248.5214 1.2586s.7865.5214 1.2586.5214h6.66c.4721 0 .9249.1875 1.2587.5213s.5213.7866.5213 1.2587v4.59c-.0026.4713-.191.9225-.5242 1.2557-.3333.3333-.7845.5217-1.2558.5243h-6.64c-.4703 0-.9216.1861-1.2551.5178-.3335.3316-.5222.7818-.5249 1.2522v3c0 .4721.1876.9248.5214 1.2586s.7865.5214 1.2586.5214h11c.4617.0129.9002.2048 1.223.5351s.5046.7731.507 1.2349v4.57c.0002.4635-.1804.9089-.5035 1.2413s-.7631.5257-1.2265.5387h-20.72c-.4721 0-.9248-.1876-1.2586-.5214s-.5214-.7865-.5214-1.2586v-11c0-.4704-.1861-.9216-.5178-1.2552-.3316-.3335-.7818-.5222-1.2522-.5248h-7.44c-.2337 0-.4652.046-.6812.1355-.2159.0894-.4121.2205-.5774.3858s-.2964.3615-.3859.5775c-.0894.216-.1355.4474-.1355.6812v11c0 .4721-.1875.9248-.5213 1.2586s-.7866.5214-1.2587.5214h-6.17c-.4721 0-.9248-.1876-1.2586-.5214s-.5214-.7865-.5214-1.2586v-5.39c3.28-11.32 3.27-18.92 0-23.1v-4.66c0-.4721.1876-.9249.5214-1.25867.3338-.33382.7865-.52135 1.2586-.52135h6.17c.2371-.00533.4729.03677.6935.12384.2206.08706.4216.21733.5911.38315.1696.16583.3043.36383.3962.58243.092.2186.1393.4534.1392.6906v10.11c0 .4721.1876.9248.5214 1.2586s.7865.5214 1.2586.5214h7.4c.4616-.0156.8991-.21 1.2201-.5421.3209-.3322.5002-.7761.4999-1.2379v-10.11c0-.4721.1876-.9249.5214-1.25867.3338-.33382.7865-.52135 1.2586-.52135h25.43c.5144.02258 1.0124.19306 1.4324.49102.42.298.746.7108.938 1.189l1.53 4.32c.232.6472.558 1.5912.842 2.4145.12.3471.233.6727.328.9455l1.6 4.83c.169.5829.401 1.146.69 1.68.3-.5311.538-1.0948.71-1.68l1.7-4.84 1.2-3.35 1.53-4.32c.191-.4782.517-.891.937-1.189.421-.29796.918-.46844 1.433-.49102z"/></g></svg>
