<svg id="Layer_1" xmlns="http://www.w3.org/2000/svg" viewBox="0 0 32 21"><style>.st0{fill:#000}</style><g id="Page-1"><g id="minimal-copy-9" transform="translate(-740 -1799)"><g id="Group-22" transform="translate(117 1689)"><g id="Group-7" transform="translate(0 105)"><g id="Group-4"><path class="st0" d="M10.7 22.6c-.2.2-.5.3-.9.3-.8 0-1.5-.7-1.5-1.5C8.3 11 9.7 5.2 23.6-3.7c.7-.4 1.6-.2 2.1.4.4.7.2 1.6-.4 2.1-13.4 8.6-14 13.6-14 22.6 0 .5-.2.9-.6 1.2z" transform="rotate(36 313.149 968.869)"/><path class="st0" d="M26 7.1c-.2.2-.5.3-.8.3-.8 0-1.5-.6-1.5-1.5-.1-2.5.7-4.7 1.3-6.5.3-.9.8-2.4.6-2.6-.2-.2-1.3-1-8.1-.5-.8.1-1.5-.6-1.6-1.4-.1-.8.6-1.5 1.4-1.6 6.5-.4 9.4 0 10.7 1.7 1.2 1.6.5 3.5-.2 5.5-.6 1.6-1.2 3.4-1.1 5.4-.1.4-.3.9-.7 1.2z" transform="rotate(36 313.149 968.869)"/></g></g></g></g></g></svg>