<svg width="48" height="40" xmlns="http://www.w3.org/2000/svg"><path d="M28.961 31.047a.742.742 0 0 0-.315-.998.747.747 0 0 0-1.004.308c-.04.074-1.012 1.822-3.582 1.822-2.526 0-3.673-1.78-3.726-1.864a.745.745 0 0 0-1.27.776c.064.105 1.604 2.576 4.996 2.576 3.502 0 4.845-2.513 4.901-2.62m.435-4.82a2.42 2.42 0 1 0 4.838 0 2.42 2.42 0 0 0-4.838 0m-15.63 0a2.42 2.42 0 1 1 4.839.001 2.42 2.42 0 0 1-4.839 0m10.611 10.528c-19.096 0-20.922-8.091-20.922-8.091s4.415-13.238 8.918-13.263c3.305-.019 4.703 4.703 7.392 4.703 2.688 0 8.548-10.374 10.645-10.374 2.097 0 5.713 3.87 8.549 7.526C43.035 22.514 45 28.797 45 28.797s-1.526 7.96-20.624 7.96M24.001 0C11.08 0 .958 16.436 0 30.319 4.054 37.355 13.832 40 24 40c10.17 0 19.948-2.645 24-9.681C47.043 16.436 36.92 0 24 0" fill-rule="evenodd"/></svg>