<svg width="64" height="64" xmlns="http://www.w3.org/2000/svg"><g fill="#D8C6A6" fill-rule="evenodd"><path d="M9 4a5 5 0 0 0-5 5v46a5 5 0 0 0 5 5h46a5 5 0 0 0 5-5V9a5 5 0 0 0-5-5H9zm0-4h46a9 9 0 0 1 9 9v46a9 9 0 0 1-9 9H9a9 9 0 0 1-9-9V9a9 9 0 0 1 9-9z" fill-rule="nonzero"/><path d="M3 3h58v18H3V3zm6.5 11a3.5 3.5 0 1 0 0-7 3.5 3.5 0 0 0 0 7zm9 0a3.5 3.5 0 1 0 0-7 3.5 3.5 0 0 0 0 7zm9 0a3.5 3.5 0 1 0 0-7 3.5 3.5 0 0 0 0 7zM13.43 50.04l-2.4-2.94c.96-.72 2.31-1.77 4.2-3.33l2.82-2.34-2.94-2.34c-1.5-1.2-3.27-2.52-4.11-3.06L13.4 33c1.35 1.08 8.43 6.81 9.51 7.59l.06 1.47c-1.05.81-8.76 7.32-9.54 7.98zM48.13 47c-.09 1.05-.15 2.64-.15 3.78-2.37-.03-4.68-.06-6.9-.06h-6.06c-2.58 0-4.95.03-7.02.06.06-.9.12-2.64.12-3.78 2.73.06 6.51.12 10.05.12 2.82 0 7.26-.06 9.96-.12z"/></g></svg>