<svg width="61" height="60" xmlns="http://www.w3.org/2000/svg"><path d="M30.237.913C13.672.913.24 14.346.24 30.916c0 13.253 8.595 24.497 20.518 28.464 1.5.276 2.047-.65 2.047-1.446 0-.712-.026-2.598-.04-5.101-8.345 1.812-10.106-4.023-10.106-4.023-1.364-3.465-3.33-4.388-3.33-4.388-2.725-1.861.205-1.822.205-1.822 3.011.21 4.595 3.09 4.595 3.09 2.676 4.585 7.022 3.26 8.731 2.494.273-1.94 1.047-3.261 1.904-4.011-6.66-.758-13.665-3.331-13.665-14.828 0-3.274 1.17-5.953 3.088-8.05-.308-.759-1.338-3.809.295-7.94 0 0 2.518-.806 8.25 3.076 2.392-.665 4.958-.998 7.51-1.01 2.548.013 5.114.346 7.511 1.01 5.727-3.882 8.241-3.076 8.241-3.076 1.637 4.131.607 7.181.3 7.94 1.922 2.097 3.083 4.775 3.083 8.05 0 11.526-7.015 14.062-13.699 14.803 1.078.927 2.038 2.758 2.038 5.556 0 4.011-.038 7.246-.038 8.23 0 .803.541 1.736 2.064 1.444C51.651 55.4 60.24 44.165 60.24 30.915 60.24 14.346 46.806.913 30.237.913" fill="#D8C6A6" fill-rule="evenodd"/></svg>