<svg id="Layer_1" xmlns="http://www.w3.org/2000/svg" viewBox="0 0 950 230"><style>.st0{fill:none;stroke:#d8c6a6;stroke-linejoin:round;stroke-miterlimit:10}</style><path class="st0" d="M32.1 87.8l-15.6 26.9h31.1z"/><path class="st0" d="M47.6 114.7L32.1 87.8h31z"/><path class="st0" d="M63.1 87.8l-15.5 26.9h31.1z"/><path class="st0" d="M78.7 114.7L63.1 87.8h31.1z"/><path class="st0" d="M94.2 87.8l-15.5 26.9h31.1z"/><path class="st0" d="M109.8 114.7L94.2 87.8h31.1z"/><path class="st0" d="M125.3 87.8l-15.5 26.9h31.1z"/><path class="st0" d="M140.9 114.7l-15.6-26.9h31.1z"/><path class="st0" d="M156.4 87.8l-15.5 26.9h31z"/><path class="st0" d="M171.9 114.7l-15.5-26.9h31.1z"/><path class="st0" d="M187.5 87.8l-15.6 26.9H203z"/><path class="st0" d="M203 114.7l-15.5-26.9h31.1z"/><path class="st0" d="M218.6 87.8L203 114.7h31.1z"/><path class="st0" d="M234.1 114.7l-15.5-26.9h31.1z"/><path class="st0" d="M249.7 87.8l-15.6 26.9h31.1z"/><path class="st0" d="M265.2 114.7l-15.5-26.9h31z"/><path class="st0" d="M280.7 87.8l-15.5 26.9h31.1z"/><path class="st0" d="M296.3 114.7l-15.6-26.9h31.1z"/><path class="st0" d="M311.8 87.8l-15.5 26.9h31.1zm-279.7 0l-15.6 26.9h31.1z"/><path class="st0" d="M47.6 114.7L32.1 87.8h31z"/><path class="st0" d="M63.1 87.8l-15.5 26.9h31.1z"/><path class="st0" d="M78.7 114.7L63.1 87.8h31.1z"/><path class="st0" d="M94.2 87.8l-15.5 26.9h31.1z"/><path class="st0" d="M109.8 114.7L94.2 87.8h31.1z"/><path class="st0" d="M125.3 87.8l-15.5 26.9h31.1z"/><path class="st0" d="M140.9 114.7l-15.6-26.9h31.1z"/><path class="st0" d="M156.4 87.8l-15.5 26.9h31z"/><path class="st0" d="M171.9 114.7l-15.5-26.9h31.1z"/><path class="st0" d="M187.5 87.8l-15.6 26.9H203z"/><path class="st0" d="M203 114.7l-15.5-26.9h31.1z"/><path class="st0" d="M218.6 87.8L203 114.7h31.1z"/><path class="st0" d="M234.1 114.7l-15.5-26.9h31.1z"/><path class="st0" d="M249.7 87.8l-15.6 26.9h31.1z"/><path class="st0" d="M265.2 114.7l-15.5-26.9h31z"/><path class="st0" d="M280.7 87.8l-15.5 26.9h31.1z"/><path class="st0" d="M296.3 114.7l-15.6-26.9h31.1z"/><path class="st0" d="M311.8 87.8l-15.5 26.9h31.1zm-233.1-27l-15.5 27h31.1z"/><path class="st0" d="M94.3 87.8l-15.6-27h31.1z"/><path class="st0" d="M109.8 60.8l-15.5 27h31z"/><path class="st0" d="M125.3 87.8l-15.5-27h31.1zm15.6-27l-15.6 27h31.1z"/><path class="st0" d="M156.4 87.8l-15.5-27H172zm15.6-27l-15.6 27h31.1z"/><path class="st0" d="M187.5 87.8l-15.5-27h31.1zm15.6-27l-15.6 27h31.1z"/><path class="st0" d="M218.6 87.8l-15.5-27h31zm15.5-27l-15.5 27h31.1z"/><path class="st0" d="M249.7 87.8l-15.6-27h31.1zm15.5-27l-15.5 27h31.1z"/><path class="st0" d="M280.8 87.8l-15.6-27h31.1zm15.5-27l-15.5 27h31.1z"/><path class="st0" d="M311.9 87.8l-15.6-27h31.1zm-233.2-27l-15.5 27h31.1zm15.6 27l-15.6-27h31.1zm15.5-27l-15.5 27h31zm15.5 27l-15.5-27h31.1zm15.6-27l-15.6 27h31.1zm15.5 27l-15.5-27H172zm15.6-27l-15.6 27h31.1zm15.5 27l-15.5-27h31.1zm15.6-27l-15.6 27h31.1zm15.5 27l-15.5-27h31zm15.5-27l-15.5 27h31.1zm15.6 27l-15.6-27h31.1zm15.5-27l-15.5 27h31.1z"/><path class="st0" d="M280.8 87.8l-15.6-27h31.1zm15.5-27l-15.5 27h31.1z"/><path class="st0" d="M311.9 87.8l-15.6-27h31.1zM78.7 222.3l-15.6-26.9h31.1zm15.5-26.9l-15.5 26.9h31.1z"/><path class="st0" d="M109.8 222.3l-15.6-26.9h31.1z"/><path class="st0" d="M125.3 195.4l-15.5 26.9h31.1zm15.6 26.9l-15.6-26.9h31.1zm15.5-26.9l-15.5 26.9h31z"/><path class="st0" d="M171.9 222.3l-15.5-26.9h31.1zm77.8-26.9l-15.6 26.9h31.1z"/><path class="st0" d="M265.2 222.3l-15.5-26.9h31zm15.5-26.9l-15.5 26.9h31.1z"/><path class="st0" d="M296.3 222.3l-15.6-26.9h31.1zm15.5-26.9l-15.5 26.9h31.1zM78.7 222.3l-15.6-26.9h31.1zm15.5-26.9l-15.5 26.9h31.1z"/><path class="st0" d="M109.8 222.3l-15.6-26.9h31.1z"/><path class="st0" d="M125.3 195.4l-15.5 26.9h31.1zm15.6 26.9l-15.6-26.9h31.1zm15.5-26.9l-15.5 26.9h31z"/><path class="st0" d="M171.9 222.3l-15.5-26.9h31.1zm77.8-26.9l-15.6 26.9h31.1z"/><path class="st0" d="M265.2 222.3l-15.5-26.9h31zm15.5-26.9l-15.5 26.9h31.1z"/><path class="st0" d="M296.3 222.3l-15.6-26.9h31.1zm15.5-26.9l-15.5 26.9h31.1zM16.5 168.5L1 195.4h31.1z"/><path class="st0" d="M32.1 195.4l-15.6-26.9h31.1zm46.6-26.9l-15.5 26.9h31.1z"/><path class="st0" d="M94.3 195.4l-15.6-26.9h31.1z"/><path class="st0" d="M109.8 168.5l-15.5 26.9h31z"/><path class="st0" d="M125.3 195.4l-15.5-26.9h31.1zm15.6-26.9l-15.6 26.9h31.1z"/><path class="st0" d="M156.4 195.4l-15.5-26.9H172zm15.6-26.9l-15.6 26.9h31.1z"/><path class="st0" d="M187.5 195.4L172 168.5h31.1zm62.2 0l-15.6-26.9h31.1zm15.5-26.9l-15.5 26.9h31.1z"/><path class="st0" d="M280.8 195.4l-15.6-26.9h31.1zm15.5-26.9l-15.5 26.9h31.1z"/><path class="st0" d="M311.9 195.4l-15.6-26.9h31.1zM16.5 168.5L1 195.4h31.1z"/><path class="st0" d="M32.1 195.4l-15.6-26.9h31.1zm46.6-26.9l-15.5 26.9h31.1z"/><path class="st0" d="M94.3 195.4l-15.6-26.9h31.1z"/><path class="st0" d="M109.8 168.5l-15.5 26.9h31z"/><path class="st0" d="M125.3 195.4l-15.5-26.9h31.1zm15.6-26.9l-15.6 26.9h31.1z"/><path class="st0" d="M156.4 195.4l-15.5-26.9H172zm15.6-26.9l-15.6 26.9h31.1z"/><path class="st0" d="M187.5 195.4L172 168.5h31.1zm62.2 0l-15.6-26.9h31.1zm15.5-26.9l-15.5 26.9h31.1z"/><path class="st0" d="M280.8 195.4l-15.6-26.9h31.1zm15.5-26.9l-15.5 26.9h31.1z"/><path class="st0" d="M311.9 195.4l-15.6-26.9h31.1zM32.1 141.6l-15.6 26.9h31.1z"/><path class="st0" d="M47.6 168.5l-15.5-26.9h31zm31.1 0l-15.6-26.9h31.1zm15.5-26.9l-15.5 26.9h31.1z"/><path class="st0" d="M109.8 168.5l-15.6-26.9h31.1z"/><path class="st0" d="M125.3 141.6l-15.5 26.9h31.1zm15.6 26.9l-15.6-26.9h31.1zm15.5-26.9l-15.5 26.9h31z"/><path class="st0" d="M171.9 168.5l-15.5-26.9h31.1zm15.6-26.9l-15.6 26.9H203z"/><path class="st0" d="M203 168.5l-15.5-26.9h31.1zm15.6-26.9L203 168.5h31.1z"/><path class="st0" d="M234.1 168.5l-15.5-26.9h31.1zm15.6-26.9l-15.6 26.9h31.1z"/><path class="st0" d="M265.2 168.5l-15.5-26.9h31zm15.5-26.9l-15.5 26.9h31.1z"/><path class="st0" d="M296.3 168.5l-15.6-26.9h31.1zm15.5-26.9l-15.5 26.9h31.1zm-279.7 0l-15.6 26.9h31.1z"/><path class="st0" d="M47.6 168.5l-15.5-26.9h31zm-31.1 0L1 141.6h31.1zm62.2 0l-15.6-26.9h31.1zm15.5-26.9l-15.5 26.9h31.1z"/><path class="st0" d="M109.8 168.5l-15.6-26.9h31.1z"/><path class="st0" d="M125.3 141.6l-15.5 26.9h31.1zm15.6 26.9l-15.6-26.9h31.1zm15.5-26.9l-15.5 26.9h31z"/><path class="st0" d="M171.9 168.5l-15.5-26.9h31.1zm15.6-26.9l-15.6 26.9H203z"/><path class="st0" d="M203 168.5l-15.5-26.9h31.1zm15.6-26.9L203 168.5h31.1z"/><path class="st0" d="M234.1 168.5l-15.5-26.9h31.1zm15.6-26.9l-15.6 26.9h31.1z"/><path class="st0" d="M265.2 168.5l-15.5-26.9h31zm15.5-26.9l-15.5 26.9h31.1z"/><path class="st0" d="M296.3 168.5l-15.6-26.9h31.1zm15.5-26.9l-15.5 26.9h31.1zM16.5 114.7L1 141.6h31.1zm15.6 26.9l-15.6-26.9h31.1zm15.5-26.9l-15.5 26.9h31.1zm15.6 26.9l-15.6-26.9h31.1zm15.5-26.9l-15.5 26.9h31.1z"/><path class="st0" d="M94.3 141.6l-15.6-26.9h31.1z"/><path class="st0" d="M109.8 114.7l-15.5 26.9h31zm15.5 26.9l-15.5-26.9h31.1zm15.6-26.9l-15.6 26.9h31.1zm15.5 26.9l-15.5-26.9H172zm15.6-26.9l-15.6 26.9h31.1z"/><path class="st0" d="M187.5 141.6L172 114.7h31.1zm15.6-26.9l-15.6 26.9h31.1zm15.5 26.9l-15.5-26.9h31zm15.5-26.9l-15.5 26.9h31.1zm15.6 26.9l-15.6-26.9h31.1zm15.5-26.9l-15.5 26.9h31.1zm15.6 26.9l-15.6-26.9h31.1zm15.5-26.9l-15.5 26.9h31.1z"/><path class="st0" d="M311.9 141.6l-15.6-26.9h31.1zM16.5 114.7L1 141.6h31.1zm15.6 26.9l-15.6-26.9h31.1zm15.5-26.9l-15.5 26.9h31.1zm15.6 26.9l-15.6-26.9h31.1zm15.5-26.9l-15.5 26.9h31.1z"/><path class="st0" d="M94.3 141.6l-15.6-26.9h31.1z"/><path class="st0" d="M109.8 114.7l-15.5 26.9h31zm15.5 26.9l-15.5-26.9h31.1zm15.6-26.9l-15.6 26.9h31.1zm15.5 26.9l-15.5-26.9H172zm15.6-26.9l-15.6 26.9h31.1z"/><path class="st0" d="M187.5 141.6L172 114.7h31.1zm15.6-26.9l-15.6 26.9h31.1zm15.5 26.9l-15.5-26.9h31zm15.5-26.9l-15.5 26.9h31.1zm15.6 26.9l-15.6-26.9h31.1zm15.5-26.9l-15.5 26.9h31.1zm15.6 26.9l-15.6-26.9h31.1zm15.5-26.9l-15.5 26.9h31.1z"/><path class="st0" d="M311.9 141.6l-15.6-26.9h31.1zm31-53.8l-15.5 26.9h31.1z"/><path class="st0" d="M358.5 114.7l-15.6-26.9H374z"/><path class="st0" d="M374 87.8l-15.5 26.9h31.1z"/><path class="st0" d="M389.6 114.7L374 87.8h31.1z"/><path class="st0" d="M405.1 87.8l-15.5 26.9h31z"/><path class="st0" d="M420.6 114.7l-15.5-26.9h31.1z"/><path class="st0" d="M436.2 87.8l-15.6 26.9h31.1z"/><path class="st0" d="M451.7 114.7l-15.5-26.9h31.1z"/><path class="st0" d="M467.3 87.8l-15.6 26.9h31.1z"/><path class="st0" d="M482.8 114.7l-15.5-26.9h31.1z"/><path class="st0" d="M498.4 87.8l-15.6 26.9h31.1z"/><path class="st0" d="M513.9 114.7l-15.5-26.9h31z"/><path class="st0" d="M529.4 87.8l-15.5 26.9H545z"/><path class="st0" d="M545 114.7l-15.6-26.9h31.1z"/><path class="st0" d="M560.5 87.8L545 114.7h31.1z"/><path class="st0" d="M576.1 114.7l-15.6-26.9h31.1z"/><path class="st0" d="M591.6 87.8l-15.5 26.9h31.1z"/><path class="st0" d="M607.2 114.7l-15.6-26.9h31.1z"/><path class="st0" d="M622.7 87.8l-15.5 26.9h31zm-279.8 0l-15.5 26.9h31.1z"/><path class="st0" d="M358.5 114.7l-15.6-26.9H374z"/><path class="st0" d="M374 87.8l-15.5 26.9h31.1z"/><path class="st0" d="M389.6 114.7L374 87.8h31.1z"/><path class="st0" d="M405.1 87.8l-15.5 26.9h31z"/><path class="st0" d="M420.6 114.7l-15.5-26.9h31.1z"/><path class="st0" d="M436.2 87.8l-15.6 26.9h31.1z"/><path class="st0" d="M451.7 114.7l-15.5-26.9h31.1z"/><path class="st0" d="M467.3 87.8l-15.6 26.9h31.1z"/><path class="st0" d="M482.8 114.7l-15.5-26.9h31.1z"/><path class="st0" d="M498.4 87.8l-15.6 26.9h31.1z"/><path class="st0" d="M513.9 114.7l-15.5-26.9h31z"/><path class="st0" d="M529.4 87.8l-15.5 26.9H545z"/><path class="st0" d="M545 114.7l-15.6-26.9h31.1z"/><path class="st0" d="M560.5 87.8L545 114.7h31.1z"/><path class="st0" d="M576.1 114.7l-15.6-26.9h31.1z"/><path class="st0" d="M591.6 87.8l-15.5 26.9h31.1z"/><path class="st0" d="M607.2 114.7l-15.6-26.9h31.1z"/><path class="st0" d="M622.7 87.8l-15.5 26.9h31zm-295.3-27l-15.5 27H343z"/><path class="st0" d="M343 87.8l-15.6-27h31.1zm15.5-27l-15.5 27h31z"/><path class="st0" d="M374 87.8l-15.5-27h31.1zm15.6-27l-15.6 27h31.1z"/><path class="st0" d="M405.1 87.8l-15.5-27h31.1z"/><path class="st0" d="M420.7 60.8l-15.6 27h31.1z"/><path class="st0" d="M436.2 87.8l-15.5-27h31.1zm15.6-27l-15.6 27h31.1z"/><path class="st0" d="M467.3 87.8l-15.5-27h31zm15.5-27l-15.5 27h31.1z"/><path class="st0" d="M498.4 87.8l-15.6-27h31.1zm15.5-27l-15.5 27h31.1z"/><path class="st0" d="M529.5 87.8l-15.6-27H545zm15.5-27l-15.5 27h31.1z"/><path class="st0" d="M560.6 87.8l-15.6-27h31.1zm15.5-27l-15.5 27h31z"/><path class="st0" d="M591.6 87.8l-15.5-27h31.1zm15.6-27l-15.6 27h31.1z"/><path class="st0" d="M622.7 87.8l-15.5-27h31.1zm-295.3-27l-15.5 27H343z"/><path class="st0" d="M343 87.8l-15.6-27h31.1zm15.5-27l-15.5 27h31z"/><path class="st0" d="M374 87.8l-15.5-27h31.1zm15.6-27l-15.6 27h31.1z"/><path class="st0" d="M405.1 87.8l-15.5-27h31.1z"/><path class="st0" d="M420.7 60.8l-15.6 27h31.1z"/><path class="st0" d="M436.2 87.8l-15.5-27h31.1zm15.6-27l-15.6 27h31.1z"/><path class="st0" d="M467.3 87.8l-15.5-27h31zm15.5-27l-15.5 27h31.1z"/><path class="st0" d="M498.4 87.8l-15.6-27h31.1zm15.5-27l-15.5 27h31.1z"/><path class="st0" d="M529.5 87.8l-15.6-27H545zm15.5-27l-15.5 27h31.1z"/><path class="st0" d="M560.6 87.8l-15.6-27h31.1zm15.5-27l-15.5 27h31z"/><path class="st0" d="M591.6 87.8l-15.5-27h31.1zm15.6-27l-15.6 27h31.1z"/><path class="st0" d="M622.7 87.8l-15.5-27h31.1zM436.2 33.9l-15.6 27m15.6-27l-15.6 27h31.1z"/><path class="st0" d="M451.7 60.9l-15.5-27h31.1zm15.6-27l-15.6 27h31.1z"/><path class="st0" d="M482.8 60.9l-15.5-27h31.1z"/><path class="st0" d="M498.4 33.9l-15.6 27h31.1z"/><path class="st0" d="M513.9 60.9l-15.5-27h31zm15.5-27l-15.5 27H545z"/><path class="st0" d="M545 60.9l-15.6-27h31.1zm15.5-27l-15.5 27h31.1z"/><path class="st0" d="M576.1 60.9l-15.6-27h31.1zm15.5-27l-15.5 27h31.1z"/><path class="st0" d="M607.2 60.9l-15.6-27h31.1zm15.5-27l-15.5 27h31zm-295.3 80.8l-15.5-26.9H343zm108.8-80.8l-15.6 27h31.1z"/><path class="st0" d="M451.7 60.9l-15.5-27h31.1zm15.6-27l-15.6 27h31.1z"/><path class="st0" d="M482.8 60.9l-15.5-27h31.1z"/><path class="st0" d="M498.4 33.9l-15.6 27h31.1z"/><path class="st0" d="M513.9 60.9l-15.5-27h31zm15.5-27l-15.5 27H545z"/><path class="st0" d="M545 60.9l-15.6-27h31.1zm15.5-27l-15.5 27h31.1z"/><path class="st0" d="M576.1 60.9l-15.6-27h31.1zm15.5-27l-15.5 27h31.1z"/><path class="st0" d="M607.2 60.9l-15.6-27h31.1zm15.5-27l-15.5 27h31zM451.8 7l-15.6 26.9M451.8 7l-15.6 26.9h31.1z"/><path class="st0" d="M467.3 33.9L451.8 7h31zM482.8 7l-15.5 26.9h31.1z"/><path class="st0" d="M498.4 33.9L482.8 7h31.1zM513.9 7l-15.5 26.9h31.1z"/><path class="st0" d="M529.5 33.9L513.9 7H545zM545 7l-15.5 26.9h31.1z"/><path class="st0" d="M560.6 33.9L545 7h31.1zM576.1 7l-15.5 26.9h31z"/><path class="st0" d="M591.6 33.9L576.1 7h31.1zM607.2 7l-15.6 26.9h31.1z"/><path class="st0" d="M622.7 33.9L607.2 7h31.1zM451.8 7l-15.6 26.9h31.1z"/><path class="st0" d="M467.3 33.9L451.8 7h31zM482.8 7l-15.5 26.9h31.1z"/><path class="st0" d="M498.4 33.9L482.8 7h31.1zM513.9 7l-15.5 26.9h31.1z"/><path class="st0" d="M529.5 33.9L513.9 7H545zM545 7l-15.5 26.9h31.1z"/><path class="st0" d="M560.6 33.9L545 7h31.1zM576.1 7l-15.5 26.9h31z"/><path class="st0" d="M591.6 33.9L576.1 7h31.1zM607.2 7l-15.6 26.9h31.1z"/><path class="st0" d="M622.7 33.9L607.2 7h31.1zM342.9 195.4l-15.5 26.9h31.1z"/><path class="st0" d="M358.5 222.3l-15.6-26.9H374zm15.5-26.9l-15.5 26.9h31.1z"/><path class="st0" d="M389.6 222.3L374 195.4h31.1zm15.5-26.9l-15.5 26.9h31z"/><path class="st0" d="M420.6 222.3l-15.5-26.9h31.1z"/><path class="st0" d="M436.2 195.4l-15.6 26.9h31.1z"/><path class="st0" d="M451.7 222.3l-15.5-26.9h31.1zm-108.8-26.9l-15.5 26.9h31.1z"/><path class="st0" d="M358.5 222.3l-15.6-26.9H374zm15.5-26.9l-15.5 26.9h31.1z"/><path class="st0" d="M389.6 222.3L374 195.4h31.1zm15.5-26.9l-15.5 26.9h31z"/><path class="st0" d="M420.6 222.3l-15.5-26.9h31.1z"/><path class="st0" d="M436.2 195.4l-15.6 26.9h31.1z"/><path class="st0" d="M451.7 222.3l-15.5-26.9h31.1zm-124.3-53.8l-15.5 26.9H343z"/><path class="st0" d="M343 195.4l-15.6-26.9h31.1zm15.5-26.9L343 195.4h31z"/><path class="st0" d="M374 195.4l-15.5-26.9h31.1zm15.6-26.9L374 195.4h31.1z"/><path class="st0" d="M405.1 195.4l-15.5-26.9h31.1z"/><path class="st0" d="M420.7 168.5l-15.6 26.9h31.1z"/><path class="st0" d="M436.2 195.4l-15.5-26.9h31.1zm15.6-26.9l-15.6 26.9h31.1z"/><path class="st0" d="M467.3 195.4l-15.5-26.9h31zm-139.9-26.9l-15.5 26.9H343z"/><path class="st0" d="M343 195.4l-15.6-26.9h31.1zm15.5-26.9L343 195.4h31z"/><path class="st0" d="M374 195.4l-15.5-26.9h31.1zm15.6-26.9L374 195.4h31.1z"/><path class="st0" d="M405.1 195.4l-15.5-26.9h31.1z"/><path class="st0" d="M420.7 168.5l-15.6 26.9h31.1z"/><path class="st0" d="M436.2 195.4l-15.5-26.9h31.1zm15.6-26.9l-15.6 26.9h31.1z"/><path class="st0" d="M467.3 195.4l-15.5-26.9h31zm-124.4-53.8l-15.5 26.9h31.1zm15.6 26.9l-15.6-26.9H374zm15.5-26.9l-15.5 26.9h31.1zm15.6 26.9L374 141.6h31.1zm15.5-26.9l-15.5 26.9h31zm15.5 26.9l-15.5-26.9h31.1z"/><path class="st0" d="M436.2 141.6l-15.6 26.9h31.1z"/><path class="st0" d="M451.7 168.5l-15.5-26.9h31.1zm15.6-26.9l-15.6 26.9h31.1z"/><path class="st0" d="M482.8 168.5l-15.5-26.9h31.1z"/><path class="st0" d="M498.4 141.6l-15.6 26.9h31.1z"/><path class="st0" d="M513.9 168.5l-15.5-26.9h31zm15.5-26.9l-15.5 26.9H545z"/><path class="st0" d="M545 168.5l-15.6-26.9h31.1zm15.5-26.9L545 168.5h31.1z"/><path class="st0" d="M576.1 168.5l-15.6-26.9h31.1zm15.5-26.9l-15.5 26.9h31.1z"/><path class="st0" d="M607.2 168.5l-15.6-26.9h31.1zm15.5-26.9l-15.5 26.9h31zm-279.8 0l-15.5 26.9h31.1z"/><path class="st0" d="M358.5 168.5l-15.6-26.9H374z"/><path class="st0" d="M327.4 168.5l-15.5-26.9H343zm0 53.8l-15.5-26.9H343zm46.6-80.7l-15.5 26.9h31.1zm15.6 26.9L374 141.6h31.1zm15.5-26.9l-15.5 26.9h31zm15.5 26.9l-15.5-26.9h31.1z"/><path class="st0" d="M436.2 141.6l-15.6 26.9h31.1z"/><path class="st0" d="M451.7 168.5l-15.5-26.9h31.1zm15.6-26.9l-15.6 26.9h31.1z"/><path class="st0" d="M482.8 168.5l-15.5-26.9h31.1z"/><path class="st0" d="M498.4 141.6l-15.6 26.9h31.1z"/><path class="st0" d="M513.9 168.5l-15.5-26.9h31zm15.5-26.9l-15.5 26.9H545z"/><path class="st0" d="M545 168.5l-15.6-26.9h31.1zm15.5-26.9L545 168.5h31.1z"/><path class="st0" d="M576.1 168.5l-15.6-26.9h31.1zm15.5-26.9l-15.5 26.9h31.1z"/><path class="st0" d="M607.2 168.5l-15.6-26.9h31.1zm15.5-26.9l-15.5 26.9h31zm-295.3-26.9l-15.5 26.9H343zm15.6 26.9l-15.6-26.9h31.1zm15.5-26.9L343 141.6h31zm15.5 26.9l-15.5-26.9h31.1zm15.6-26.9L374 141.6h31.1zm15.5 26.9l-15.5-26.9h31.1z"/><path class="st0" d="M420.7 114.7l-15.6 26.9h31.1zm15.5 26.9l-15.5-26.9h31.1zm15.6-26.9l-15.6 26.9h31.1zm15.5 26.9l-15.5-26.9h31zm15.5-26.9l-15.5 26.9h31.1z"/><path class="st0" d="M498.4 141.6l-15.6-26.9h31.1zm15.5-26.9l-15.5 26.9h31.1zm15.6 26.9l-15.6-26.9H545zm15.5-26.9l-15.5 26.9h31.1z"/><path class="st0" d="M560.6 141.6L545 114.7h31.1zm15.5-26.9l-15.5 26.9h31zm15.5 26.9l-15.5-26.9h31.1zm15.6-26.9l-15.6 26.9h31.1zm15.5 26.9l-15.5-26.9h31.1zm-295.3-26.9l-15.5 26.9H343zm15.6 26.9l-15.6-26.9h31.1zm15.5-26.9L343 141.6h31zm15.5 26.9l-15.5-26.9h31.1zm15.6-26.9L374 141.6h31.1zm15.5 26.9l-15.5-26.9h31.1z"/><path class="st0" d="M420.7 114.7l-15.6 26.9h31.1zm15.5 26.9l-15.5-26.9h31.1zm15.6-26.9l-15.6 26.9h31.1zm15.5 26.9l-15.5-26.9h31zm15.5-26.9l-15.5 26.9h31.1z"/><path class="st0" d="M498.4 141.6l-15.6-26.9h31.1zm15.5-26.9l-15.5 26.9h31.1zm15.6 26.9l-15.6-26.9H545zm15.5-26.9l-15.5 26.9h31.1z"/><path class="st0" d="M560.6 141.6L545 114.7h31.1zm15.5-26.9l-15.5 26.9h31zm15.5 26.9l-15.5-26.9h31.1zm15.6-26.9l-15.6 26.9h31.1zm15.5 26.9l-15.5-26.9h31.1zm31.1-53.8l-15.6 26.9h31.1z"/><path class="st0" d="M669.3 114.7l-15.5-26.9h31.1z"/><path class="st0" d="M684.9 87.8l-15.6 26.9h31.1z"/><path class="st0" d="M700.4 114.7l-15.5-26.9H716z"/><path class="st0" d="M716 87.8l-15.6 26.9h31.1z"/><path class="st0" d="M731.5 114.7L716 87.8h31z"/><path class="st0" d="M747 87.8l-15.5 26.9h31.1z"/><path class="st0" d="M762.6 114.7L747 87.8h31.1z"/><path class="st0" d="M778.1 87.8l-15.5 26.9h31.1z"/><path class="st0" d="M793.7 114.7l-15.6-26.9h31.1z"/><path class="st0" d="M809.2 87.8l-15.5 26.9h31.1z"/><path class="st0" d="M824.8 114.7l-15.6-26.9h31.1z"/><path class="st0" d="M840.3 87.8l-15.5 26.9h31z"/><path class="st0" d="M855.8 114.7l-15.5-26.9h31.1z"/><path class="st0" d="M871.4 87.8l-15.6 26.9h31.1z"/><path class="st0" d="M886.9 114.7l-15.5-26.9h31.1zM653.8 87.8l-15.6 26.9h31.1z"/><path class="st0" d="M669.3 114.7l-15.5-26.9h31.1z"/><path class="st0" d="M684.9 87.8l-15.6 26.9h31.1z"/><path class="st0" d="M700.4 114.7l-15.5-26.9H716z"/><path class="st0" d="M716 87.8l-15.6 26.9h31.1z"/><path class="st0" d="M731.5 114.7L716 87.8h31z"/><path class="st0" d="M747 87.8l-15.5 26.9h31.1z"/><path class="st0" d="M762.6 114.7L747 87.8h31.1z"/><path class="st0" d="M778.1 87.8l-15.5 26.9h31.1z"/><path class="st0" d="M793.7 114.7l-15.6-26.9h31.1z"/><path class="st0" d="M809.2 87.8l-15.5 26.9h31.1z"/><path class="st0" d="M824.8 114.7l-15.6-26.9h31.1z"/><path class="st0" d="M840.3 87.8l-15.5 26.9h31z"/><path class="st0" d="M855.8 114.7l-15.5-26.9h31.1z"/><path class="st0" d="M871.4 87.8l-15.6 26.9h31.1z"/><path class="st0" d="M886.9 114.7l-15.5-26.9h31.1zM638.3 60.8l-15.6 27h31.1z"/><path class="st0" d="M653.8 87.8l-15.5-27h31.1zm15.6-27l-15.6 27h31.1z"/><path class="st0" d="M684.9 87.8l-15.5-27h31zm15.5-27l-15.5 27H716z"/><path class="st0" d="M716 87.8l-15.6-27h31.1zm15.5-27l-15.5 27h31.1z"/><path class="st0" d="M747.1 87.8l-15.6-27h31.1zm15.5-27l-15.5 27h31.1z"/><path class="st0" d="M778.2 87.8l-15.6-27h31.1zm15.5-27l-15.5 27h31.1z"/><path class="st0" d="M809.3 87.8l-15.6-27h31.1zm15.5-27l-15.5 27h31z"/><path class="st0" d="M840.3 87.8l-15.5-27h31.1zm15.6-27l-15.6 27h31.1z"/><path class="st0" d="M871.4 87.8l-15.5-27H887zm15.6-27l-15.6 27h31.1z"/><path class="st0" d="M902.5 87.8l-15.5-27h31.1zm15.6-27l-15.6 27m-264.2-27l-15.6 27h31.1z"/><path class="st0" d="M653.8 87.8l-15.5-27h31.1zm15.6-27l-15.6 27h31.1z"/><path class="st0" d="M684.9 87.8l-15.5-27h31zm15.5-27l-15.5 27H716z"/><path class="st0" d="M716 87.8l-15.6-27h31.1zm15.5-27l-15.5 27h31.1z"/><path class="st0" d="M747.1 87.8l-15.6-27h31.1zm15.5-27l-15.5 27h31.1z"/><path class="st0" d="M778.2 87.8l-15.6-27h31.1zm15.5-27l-15.5 27h31.1z"/><path class="st0" d="M809.3 87.8l-15.6-27h31.1zm15.5-27l-15.5 27h31z"/><path class="st0" d="M840.3 87.8l-15.5-27h31.1zm15.6-27l-15.6 27h31.1z"/><path class="st0" d="M871.4 87.8l-15.5-27H887zm15.6-27l-15.6 27h31.1z"/><path class="st0" d="M902.5 87.8l-15.5-27h31.1zm15.6-27l-15.6 27M653.8 33.9l-15.6 27h31.1z"/><path class="st0" d="M669.3 60.9l-15.5-27h31.1zm15.6-27l-15.6 27h31.1z"/><path class="st0" d="M700.4 60.9l-15.5-27H716zm15.6-27l-15.6 27h31.1z"/><path class="st0" d="M731.5 60.9l-15.5-27h31zm15.5-27l-15.5 27h31.1z"/><path class="st0" d="M762.6 60.9l-15.6-27h31.1zm15.5-27l-15.5 27h31.1z"/><path class="st0" d="M793.7 60.9l-15.6-27h31.1zm15.5-27l-15.5 27h31.1z"/><path class="st0" d="M824.8 60.9l-15.6-27h31.1zm15.5-27l-15.5 27h31z"/><path class="st0" d="M855.8 60.9l-15.5-27h31.1zm15.6-27l-15.6 27h31.1z"/><path class="st0" d="M886.9 60.9l-15.5-27h31.1zm15.6-27l-15.6 27H918z"/><path class="st0" d="M918 60.9l-15.5-27h31.1zm15.6-27l-15.6 27m-264.2-27l-15.6 27h31.1z"/><path class="st0" d="M669.3 60.9l-15.5-27h31.1zm-31 0l-15.6-27h31.1zm0 53.8l-15.6-26.9h31.1zm46.6-80.8l-15.6 27h31.1z"/><path class="st0" d="M700.4 60.9l-15.5-27H716zm15.6-27l-15.6 27h31.1z"/><path class="st0" d="M731.5 60.9l-15.5-27h31zm15.5-27l-15.5 27h31.1z"/><path class="st0" d="M762.6 60.9l-15.6-27h31.1zm15.5-27l-15.5 27h31.1z"/><path class="st0" d="M793.7 60.9l-15.6-27h31.1zm15.5-27l-15.5 27h31.1z"/><path class="st0" d="M824.8 60.9l-15.6-27h31.1zm15.5-27l-15.5 27h31z"/><path class="st0" d="M855.8 60.9l-15.5-27h31.1zm15.6-27l-15.6 27h31.1z"/><path class="st0" d="M886.9 60.9l-15.5-27h31.1zm15.6-27l-15.6 27H918z"/><path class="st0" d="M918 60.9l-15.5-27h31.1zm15.6-27l-15.6 27M638.3 7l-15.6 26.9h31.1z"/><path class="st0" d="M653.8 33.9L638.3 7h31.1zM669.4 7l-15.6 26.9h31.1z"/><path class="st0" d="M684.9 33.9L669.4 7h31zM700.4 7l-15.5 26.9H716z"/><path class="st0" d="M716 33.9L700.4 7h31.1zM731.5 7L716 33.9h31.1z"/><path class="st0" d="M747.1 33.9L731.5 7h31.1zM762.6 7l-15.5 26.9h31.1z"/><path class="st0" d="M778.2 33.9L762.6 7h31.1zM793.7 7l-15.5 26.9h31.1z"/><path class="st0" d="M809.3 33.9L793.7 7h31.1z"/><path class="st0" d="M824.8 7l-15.5 26.9h31z"/><path class="st0" d="M840.3 33.9L824.8 7h31.1zM855.9 7l-15.6 26.9h31.1z"/><path class="st0" d="M871.4 33.9L855.9 7H887zM887 7l-15.6 26.9h31.1z"/><path class="st0" d="M902.5 33.9L887 7h31.1zM918.1 7l-15.6 26.9h31.1z"/><path class="st0" d="M933.6 33.9L918.1 7h31zM638.3 7l-15.6 26.9h31.1z"/><path class="st0" d="M653.8 33.9L638.3 7h31.1zM669.4 7l-15.6 26.9h31.1z"/><path class="st0" d="M684.9 33.9L669.4 7h31zM700.4 7l-15.5 26.9H716z"/><path class="st0" d="M716 33.9L700.4 7h31.1zM731.5 7L716 33.9h31.1z"/><path class="st0" d="M747.1 33.9L731.5 7h31.1zM762.6 7l-15.5 26.9h31.1z"/><path class="st0" d="M778.2 33.9L762.6 7h31.1zM793.7 7l-15.5 26.9h31.1z"/><path class="st0" d="M809.3 33.9L793.7 7h31.1z"/><path class="st0" d="M824.8 7l-15.5 26.9h31z"/><path class="st0" d="M840.3 33.9L824.8 7h31.1zM855.9 7l-15.6 26.9h31.1z"/><path class="st0" d="M871.4 33.9L855.9 7H887zM887 7l-15.6 26.9h31.1z"/><path class="st0" d="M902.5 33.9L887 7h31.1zM918.1 7l-15.6 26.9h31.1z"/><path class="st0" d="M933.6 33.9L918.1 7h31zM653.8 141.6l-15.6 26.9h31.1z"/><path class="st0" d="M669.3 168.5l-15.5-26.9h31.1zm15.6-26.9l-15.6 26.9h31.1z"/><path class="st0" d="M700.4 168.5l-15.5-26.9H716zm15.6-26.9l-15.6 26.9h31.1z"/><path class="st0" d="M731.5 168.5L716 141.6h31zm15.5-26.9l-15.5 26.9h31.1z"/><path class="st0" d="M762.6 168.5L747 141.6h31.1zm15.5-26.9l-15.5 26.9h31.1z"/><path class="st0" d="M793.7 168.5l-15.6-26.9h31.1zm15.5-26.9l-15.5 26.9h31.1z"/><path class="st0" d="M824.8 168.5l-15.6-26.9h31.1zm-171-26.9l-15.6 26.9h31.1z"/><path class="st0" d="M669.3 168.5l-15.5-26.9h31.1zm-31 0l-15.6-26.9h31.1zm46.6-26.9l-15.6 26.9h31.1z"/><path class="st0" d="M700.4 168.5l-15.5-26.9H716zm15.6-26.9l-15.6 26.9h31.1z"/><path class="st0" d="M731.5 168.5L716 141.6h31zm15.5-26.9l-15.5 26.9h31.1z"/><path class="st0" d="M762.6 168.5L747 141.6h31.1zm15.5-26.9l-15.5 26.9h31.1z"/><path class="st0" d="M793.7 168.5l-15.6-26.9h31.1zm15.5-26.9l-15.5 26.9h31.1z"/><path class="st0" d="M824.8 168.5l-15.6-26.9h31.1zm-186.5-53.8l-15.6 26.9h31.1zm15.5 26.9l-15.5-26.9h31.1zm15.6-26.9l-15.6 26.9h31.1zm15.5 26.9l-15.5-26.9h31zm15.5-26.9l-15.5 26.9H716zm15.6 26.9l-15.6-26.9h31.1zm15.5-26.9L716 141.6h31.1zm15.6 26.9l-15.6-26.9h31.1zm15.5-26.9l-15.5 26.9h31.1zm15.6 26.9l-15.6-26.9h31.1z"/><path class="st0" d="M793.7 114.7l-15.5 26.9h31.1z"/><path class="st0" d="M809.3 141.6l-15.6-26.9h31.1zm15.5-26.9l-15.5 26.9h31zm15.5 26.9l-15.5-26.9h31.1zm-202-26.9l-15.6 26.9h31.1zm15.5 26.9l-15.5-26.9h31.1zm15.6-26.9l-15.6 26.9h31.1zm15.5 26.9l-15.5-26.9h31zm15.5-26.9l-15.5 26.9H716zm15.6 26.9l-15.6-26.9h31.1zm15.5-26.9L716 141.6h31.1zm15.6 26.9l-15.6-26.9h31.1zm15.5-26.9l-15.5 26.9h31.1z"/><path class="st0" d="M778.2 141.6l-15.6-26.9h31.1zm15.5-26.9l-15.5 26.9h31.1z"/><path class="st0" d="M809.3 141.6l-15.6-26.9h31.1zm15.5-26.9l-15.5 26.9h31zm15.5 26.9l-15.5-26.9h31.1z"/></svg>