<svg viewBox="0 0 231.28 226.64" xmlns="http://www.w3.org/2000/svg"><g fill="none" stroke="#6bcbdb" stroke-miterlimit="2.61" stroke-width=".22"><path d="m185.54.11c-66.36-.42-126.3 61.72-115.84 128.54 5.33 34.07 16.68 100.17 59.35 97.82 20.16-1.11 18.26-7.28 16.13-22-2.68-18.61-118.65-56.36-145-55.89 12.74-38.19 21.81-62 68.63-51.6 4.22.94 46.79 17.94 38.2 29.43-11.41 15.26-21-11.92-14-23.83 20-33.78 53-30.05 83.78-37.46 16.49-4.02 15.21-50.02 8.75-65.01z"/><path d="m192.69 6.71c-64.91-4.52-127.48 52.47-121.52 118.44 3 33.63 10 98.95 51.79 99.3 19.74.16 18.25-6 17.07-20.61-1.5-18.42-112.51-62.68-138.31-63.94 14.86-36.61 25.28-59.34 70.44-46.32 4.13 1.14 44.76 20.42 35.71 31.13-12 14.21-19.66-12.92-12-24 21.68-31.71 53.77-25.97 84.31-31.21 16.36-2.78 17.9-47.77 12.51-62.79z"/><path d="m199.25 13.63c-63.25-8.46-128 43.31-126.39 108.13.83 33 3.46 97.29 44.28 100.24 19.25 1.37 18.15-4.78 17.9-19.15-.35-18.17-106.04-68.46-131.18-71.38 16.84-34.92 28.47-56.54 71.88-41 4 1.33 42.6 22.72 33.16 32.63-12.59 13.15-18.27-13.79-10-24.12 23.16-29.58 54.17-21.83 84.31-24.98 16.15-1.6 20.44-45.4 16.04-60.37z"/><path d="m205.2 20.79c-61.28-12.19-127.89 34.32-130.44 97.71-1.31 32.31-2.8 95.21 36.86 100.62 18.69 2.53 18-3.58 18.61-17.67.76-17.84-99.34-73.67-123.66-78.16 18.66-33.12 31.43-53.57 72.92-35.72 3.92 1.51 40.33 24.81 30.56 33.92-13 12.08-16.85-14.54-8.12-24 24.55-27.34 54.35-17.75 84-18.85 15.82-.54 22.7-42.99 19.27-57.85z"/><path d="m210.54 28.17c-59.14-15.71-127.16 25.51-133.7 87.2-3.34 31.46-8.77 92.74 29.58 100.49 18.06 3.61 17.73-2.43 19.21-16.19 1.83-17.44-92.39-78.3-115.82-84.28 20.31-31.23 34.12-50.45 73.58-30.46 3.81 1.69 38 26.72 27.94 35-13.43 11-15.41-15.17-6.26-23.82 25.71-25.08 54.21-13.76 83.16-12.91 15.48.61 24.77-40.34 22.31-55.03z"/><path d="m215.25 35.7c-56.8-19-125.84 16.95-136.16 76.7-5.25 30.47-14.43 89.91 22.48 99.84 17.37 4.62 17.4-1.33 19.7-14.69 2.85-17-85.27-82.36-107.73-89.74 21.82-29.27 36.55-47.22 73.89-25.27 3.69 1.86 35.57 28.46 25.3 35.95-13.72 9.93-14-15.67-4.47-23.46 26.7-22.78 53.78-9.87 82-7.16 14.98 1.61 26.58-37.71 24.99-52.17z"/><path d="m219.34 43.34c-54.28-22.07-123.96 8.66-137.83 66.25-7.07 29.37-19.77 86.73 15.58 98.7 16.63 5.56 17-.27 20.08-13.21 3.82-16.47-78-85.82-99.42-94.49 23.15-27.25 38.71-43.89 73.83-20.17 3.57 2 33.05 30 22.66 36.67-13.94 8.87-12.51-16-2.74-23 27.5-20.43 53.08-6.09 80.34-1.58 14.52 2.57 28.23-34.99 27.5-49.17z"/><path d="m222.81 51c-51.62-24.85-121.54.73-138.73 56-8.77 28.11-24.76 83.2 8.92 97 15.83 6.43 16.55.73 20.34-11.73 4.74-15.9-70.67-88.71-90.94-98.57 24.31-25.14 40.6-40.44 73.42-15.14 3.44 2.18 30.52 31.26 20 37.21-14.07 7.82-11.06-16.31-1.09-22.36 28.09-18.14 52.12-2.44 78.37 3.7 13.97 3.48 29.62-32.22 29.71-46.11z"/><path d="m225.66 58.75c-48.82-27.46-118.66-6.94-138.89 45.73-10.33 26.86-29.39 79.5 2.54 95.05 15 7.22 16 1.67 20.51-10.28 5.59-15.28-63.29-91-82.38-101.95 25.31-23.08 42.2-37 72.7-10.32 3.3 2.32 27.94 32.37 17.43 37.56-14.13 6.78-9.65-16.46.46-21.64 28.51-15.83 50.91 1 76.05 8.74 13.32 4.36 30.71-29.42 31.58-42.89z"/><path d="m227.91 66.43c-45.91-29.78-115.23-14.2-138.33 35.76-11.77 25.47-33.64 75.5-3.55 92.6 14.13 7.93 15.48 2.54 20.57-8.85 6.4-14.62-55.9-92.75-73.74-104.66 26.14-21 43.53-33.5 71.64-5.62 3.17 2.46 25.37 33.29 14.87 37.74-14.12 5.78-8.25-16.49 1.92-20.81 28.71-13.54 49.48 4.41 73.41 13.51 12.65 5.12 31.61-26.62 33.21-39.67z"/><path d="m229.56 74c-42.9-31.82-111.41-21-137.07 26.08-13.07 24-37.5 71.3-9.31 89.78 13.23 8.55 14.88 3.35 20.54-7.47 7.13-13.92-48.57-93.91-65.12-106.68 26.8-18.81 44.6-30 70.3-1.09 3 2.59 22.78 34 12.35 37.74-14 4.8-6.89-16.42 3.28-19.89 28.82-11.28 47.83 7.54 70.49 18 11.92 5.81 32.27-23.84 34.54-36.47z"/><path d="m230.64 81.5c-39.82-33.65-107.2-27.5-135.15 16.67-14.24 22.5-41 66.9-14.73 86.59 12.32 9.1 14.23 4.1 20.41-6.11 7.81-13.19-41.31-94.54-56.54-108 27.3-16.73 45.37-26.51 68.68 3.19 2.87 2.71 20.21 34.54 9.9 37.58-13.89 3.86-5.59-16.23 4.51-18.88 28.73-9.07 46 10.5 67.31 22.13 11.16 6.47 32.71-21.05 35.61-33.17z"/><path d="m231.16 88.81c-36.7-35.19-102.64-33.44-132.6 7.63-15.28 20.94-44.05 62.37-19.79 83.1 11.39 9.56 13.56 4.78 20.21-4.81 8.42-12.43-34.18-94.62-48.07-108.73 27.65-14.57 45.93-23 66.8 7.35 2.72 2.82 17.67 34.88 7.51 37.27-13.67 3-4.32-16 5.65-17.8 28.46-6.92 44 13.26 63.88 25.94 10.37 7.02 32.93-18.35 36.41-29.95z"/><path d="m231.15 95.91c-33.54-36.48-97.77-38.95-129.48-1-16.16 19.33-46.67 57.73-24.44 79.31 10.45 9.95 12.85 5.39 19.92-3.55 9-11.65-27.22-94.19-39.75-108.83 27.83-12.48 46.2-19.52 64.68 11.23 2.57 2.94 15.17 35.05 5.21 36.82-13.4 2.09-3.12-15.59 6.65-16.66 28.06-4.84 41.8 15.8 60.26 29.41 9.55 7.54 32.95-15.64 36.95-26.73z"/><path d="m230.62 102.76c-30.37-37.5-92.61-44-125.79-9.21-16.91 17.72-48.95 53-28.71 75.3 9.52 10.26 12.13 5.93 19.56-2.36 9.45-10.84-20.46-93.26-31.61-108.3 27.86-10.42 46.22-16.13 62.34 14.89 2.4 3 12.71 35 3 36.21-13.08 1.28-2-15.13 7.54-15.46 27.48-2.83 39.47 18.17 56.45 32.52 8.71 7.97 32.75-13.07 37.22-23.59z"/><path d="m229.61 109.34c-27.21-38.28-87.22-48.49-121.6-17-17.52 16.09-50.79 48.27-32.56 71.07 8.58 10.49 11.39 6.4 19.12-1.22 9.87-10-13.92-91.87-23.71-107.19 27.74-8.41 46-12.82 59.81 18.29 2.25 3.12 10.33 34.86.88 35.48-12.72.52-.93-14.6 8.29-14.22 26.8-1 37 20.21 52.52 35.27 7.86 8.35 32.37-10.53 37.25-20.48z"/><path d="m228.15 115.6c-24.08-38.81-81.65-52.5-116.95-24.2-18 14.45-52.22 43.49-36 66.67 7.66 10.63 10.64 6.8 18.62-.16 10.23-9.2-7.65-90-16.09-105.52 27.5-6.46 45.57-9.6 57.1 21.43 2.09 3.2 8 34.52-1.12 34.63-12.31-.19.05-14 8.92-12.94 26 .85 34.5 22 48.47 37.65 7.01 8.58 31.81-8.16 37.05-17.56z"/><path d="m226.27 121.52c-21-39.1-75.93-56-111.88-30.92-18.33 12.81-53.27 38.74-39 62.12 6.75 10.72 9.89 7.14 18.07.85 10.54-8.37-1.68-87.78-8.78-103.33 27.1-4.58 44.91-6.49 54.24 24.29 1.93 3.28 5.8 34.05-3 33.69-11.86-.86 1-13.33 9.43-11.66 25 2.54 31.89 23.66 44.33 39.66 6.11 8.78 31.04-5.91 36.59-14.7z"/><path d="m224 127.07c-18-39.16-70.1-59.02-106.44-37.07-18.56 11.17-53.93 34-41.56 57.45 5.87 10.72 9.14 7.4 17.47 1.78 10.74-7.55 4-85.14-1.82-100.64 26.59-2.79 44-3.52 51.26 26.88 1.76 3.34 3.66 33.42-4.82 32.63-11.38-1.46 1.78-12.6 9.81-10.36 24 4.11 29.2 25 40.14 41.3 5.27 8.9 30.16-3.76 35.96-11.97z"/><path d="m221.4 132.22c-15-39-64.22-61.5-100.71-42.69-18.6 9.6-54.2 29.41-43.71 52.75 5 10.67 8.39 7.6 16.81 2.64 10.91-6.72 9.29-82.15 4.76-97.51 26-1.06 43-.67 48.17 29.2 1.6 3.4 1.64 32.67-6.47 31.49-10.88-2 2.5-11.83 10.05-9.06 22.85 5.56 26.49 26.15 35.93 42.57 4.44 8.94 29.15-1.75 35.17-9.39z"/><path d="m218.47 137c-12.19-38.63-58.3-63.5-94.68-47.72-18.55 8.05-54.12 24.9-45.44 48 4.19 10.54 7.67 7.73 16.14 3.41 11-5.91 14.22-78.83 10.92-93.95 25.23.57 41.74 2 45 31.24 1.44 3.45-.28 31.79-8 30.27-10.35-2.49 3.14-11 10.18-7.78 21.62 6.88 23.75 27 31.72 43.48 3.62 8.89 27.99.05 34.16-6.95z"/><path d="m215.28 141.26c-9.46-38-52.41-65-88.45-52.16-18.38 6.56-53.69 20.53-46.74 43.27 3.4 10.36 7 7.82 15.43 4.13 11-5.12 18.78-75.24 16.66-90 24.39 2.09 40.34 4.55 41.77 33 1.27 3.5-2.08 30.82-9.42 29-9.81-2.92 3.68-10.18 10.18-6.52 20.33 8.08 21 27.68 27.56 44 2.82 8.81 26.73 1.79 33.01-4.72z"/><path d="m211.85 145.11c-6.85-37.29-46.57-66-82-56-18.09 5.11-52.92 16.3-47.62 38.56 2.66 10.11 6.27 7.83 14.7 4.76 11-4.34 22.93-71.4 21.93-85.75 23.47 3.51 38.79 6.91 38.51 34.45 1.1 3.54-3.75 29.75-10.71 27.66-9.25-3.3 4.14-9.32 10.08-5.3 19 9.12 18.29 28.09 23.46 44.22 1.98 8.69 25.3 3.37 31.65-2.6z"/><path d="m208.23 148.5c-4.38-36.36-40.83-66.5-75.53-59.23-17.7 3.73-51.85 12.27-48.1 33.93 2 9.82 5.61 7.8 14 5.31 11-3.58 26.68-67.33 26.73-81.19 22.47 4.84 37.1 9.1 35.23 35.65.94 3.57-5.3 28.58-11.85 26.28-8.7-3.61 4.49-8.44 9.84-4.12 17.57 10 15.62 28.27 19.45 44.09 1.25 8.46 23.85 4.78 30.23-.72z"/><path d="m204.46 151.43c-2.06-35.28-35.21-66.6-69-61.88-17.15 2.45-50.46 8.45-48.13 29.45 1.3 9.48 5 7.71 13.18 5.79 10.88-2.85 30-63.09 31-76.37 21.4 6 35.31 11.08 32 36.56.77 3.59-6.72 27.36-12.88 24.87-8.13-3.86 4.76-7.55 9.52-3 16.12 10.8 13 28.21 15.56 43.61.6 8.16 22.38 5.91 28.75.97z"/><path d="m200.58 153.87c.11-34-29.76-66.23-62.35-63.93-16.62 1.19-48.84 4.86-47.89 25 .7 9.11 4.37 7.58 12.42 6.2 10.71-2.15 32.89-58.72 34.84-71.36 20.27 7.13 33.4 12.9 28.74 37.22.61 3.61-8 26.06-13.77 23.44-7.58-4.06 4.92-6.67 9.07-1.91 14.66 11.43 10.44 27.94 11.82 42.84-.08 7.86 20.81 6.97 27.12 2.5z"/><path d="m196.63 155.85c2.11-32.69-24.49-65.47-55.77-65.4-16 0-47 1.5-47.25 20.77.15 8.69 3.81 7.4 11.66 6.54 10.51-1.49 35.35-54.25 38.13-66.18 19.09 8.09 31.44 14.5 25.56 37.61.44 3.62-9.15 24.72-14.54 22-7-4.21 5-5.82 8.54-.92 13.19 11.91 8 27.47 8.25 41.77-.7 7.48 19.19 7.83 25.42 3.81z"/><path d="m192.65 157.35c3.95-31.22-19.46-64.3-49.27-66.31-15.21-1-44.87-1.58-46.28 16.74-.34 8.24 3.3 7.19 10.92 6.8 10.27-.85 37.37-49.7 40.9-60.88 17.87 8.93 29.4 15.91 22.45 37.75.28 3.64-10.15 23.35-15.18 20.57-6.49-4.3 5-5 7.93 0 11.71 12.26 5.63 26.81 4.85 40.43-1.27 7.05 17.57 8.49 23.68 4.9z"/><path d="m188.69 158.38c5.59-29.65-14.68-62.77-42.91-66.65-14.39-2-42.57-4.4-45 12.9-.78 7.78 2.82 6.94 10.18 7 10-.26 39-45.14 43.16-55.52 16.63 9.66 27.31 17.12 19.43 37.66.11 3.64-11 22-15.7 19.14-6-4.34 4.88-4.14 7.23.84 10.25 12.47 3.39 26 1.67 38.82-1.75 6.6 15.97 9.02 21.94 5.81z"/><path d="m184.78 158.94c7.06-28-10.18-60.89-36.7-66.45-13.53-2.82-40.11-6.93-43.39 9.31-1.15 7.28 2.39 6.66 9.46 7.14 9.68.3 40.14-40.58 44.92-50.12 15.36 10.26 25.19 18.13 16.5 37.34 0 3.63-11.76 20.53-16.09 17.74-5.49-4.34 4.7-3.37 6.45 1.57 8.82 12.55 1.3 24.93-1.27 37-2.26 6.07 14.34 9.33 20.12 6.47z"/><path d="m181 159.07c8.34-26.31-6-58.72-30.7-65.77-12.62-3.57-37.51-9.15-41.54 6-1.47 6.77 2 6.35 8.77 7.21 9.35.82 40.9-36.06 46.16-44.73 14.1 10.74 23.06 18.94 13.71 36.8-.21 3.62-12.36 19.12-16.38 16.36-5-4.3 4.44-2.63 5.62 2.23 7.41 12.48-.66 23.74-4 34.94-2.64 5.53 12.7 9.49 18.36 6.96z"/><path d="m177.27 158.75c9.44-24.55-2.1-56.26-25-64.58-11.66-4.22-34.8-11.08-39.45 2.93-1.72 6.26 1.68 6 8.12 7.23 9 1.29 41.23-31.62 46.89-39.41 12.89 11.08 20.98 19.56 11.11 36.08-.37 3.6-12.84 17.71-16.57 15-4.58-4.2 4.11-1.93 4.74 2.78 6.06 12.29-2.45 22.42-6.43 32.71-3.02 4.99 11.17 9.51 16.59 7.26z"/><path d="m173.75 158c10.34-22.78 1.44-53.56-19.49-63-10.68-4.76-32-12.69-37.15.18-1.92 5.74 1.4 5.69 7.5 7.19 8.58 1.72 41.19-27.3 47.15-34.18 11.59 11.36 18.82 20 8.55 35.16-.53 3.58-13.18 16.32-16.65 13.72-4.17-4.08 3.71-1.3 3.81 3.21 4.76 12-4.07 21-8.61 30.32-3.31 4.48 9.68 9.4 14.89 7.4z"/><path d="m170.42 156.89c11.06-21 4.62-50.65-14.33-60.89-9.68-5.2-29.15-14-34.67-2.28-2.06 5.23 1.16 5.35 6.91 7.11 8.18 2.12 40.76-23.11 46.94-29.08 10.36 11.49 16.73 20.25 6.21 34.07-.69 3.56-13.41 15-16.63 12.48-3.8-3.92 3.24-.72 2.84 3.55 3.52 11.57-5.52 19.41-10.51 27.78-3.53 3.81 8.25 9.05 13.24 7.26z"/><path d="m167.32 155.39c11.6-19.21 7.45-47.56-9.53-58.44-8.67-5.53-26.26-15-32-4.41-2.14 4.72 1 5 6.36 7 7.77 2.46 40-19.1 46.29-24.17 9.16 11.52 14.72 20.28 4 32.84-.84 3.52-13.52 13.66-16.53 11.29-3.47-3.73 2.71-.21 1.85 3.77 2.36 11.06-6.79 17.76-12.12 25.15-3.64 3.18 6.92 8.58 11.68 6.97z"/><path d="m164.49 153.54c11.95-17.45 9.88-44.33-5.11-55.65-7.66-5.75-23.38-15.68-29.28-6.21-2.16 4.22.84 4.64 5.87 6.82 7.34 2.76 38.86-15.29 45.2-19.47 8 11.45 12.75 20.17 2.06 31.49-1 3.47-13.52 12.38-16.36 10.16-3.17-3.52 2.15.23.85 3.88 1.29 10.44-7.86 16-13.43 22.42-3.79 2.6 5.71 8.02 10.2 6.56z"/><path d="m161.94 151.37c12.14-15.73 11.95-41-1.08-52.54-6.66-5.86-20.53-16.07-26.44-7.68-2.13 3.74.76 4.29 5.42 6.62 6.91 3 37.43-11.71 43.71-15 6.9 11.27 10.87 19.89.27 30-1.16 3.43-13.42 11.18-16.1 9.12-2.93-3.3 1.53.59-.16 3.87.31 9.73-8.74 14.23-14.45 19.64-3.83 1.98 4.52 7.33 8.83 5.97z"/><path d="m159.7 148.91c12.16-14.06 13.63-37.6 2.53-49.16-5.68-5.87-17.73-16.16-23.53-8.81-2.06 3.28.71 4 5 6.39 6.47 3.23 35.7-8.37 41.85-10.83 5.85 11 9.08 19.46-1.33 28.45-1.31 3.38-13.22 10-15.78 8.13-2.72-3 .88.88-1.16 3.77-.58 8.93-9.43 12.39-15.16 16.81-3.8 1.39 3.49 6.53 7.58 5.25z"/><path d="m157.81 146.19c12-12.46 14.92-34.16 5.69-45.54-4.73-5.79-15-16-20.61-9.62-1.93 2.86.72 3.64 4.67 6.15 6 3.4 33.71-5.31 39.63-7 4.87 10.66 7.39 18.88-2.72 26.8-1.46 3.32-12.93 9-15.41 7.24-2.55-2.79.2 1.08-2.14 3.53-1.36 8.07-9.91 10.53-15.58 14-3.72.85 2.58 5.68 6.47 4.44z"/><path d="m156.26 143.24c11.72-10.94 15.84-30.71 8.41-41.74-3.82-5.6-12.4-15.5-17.67-10.07-1.76 2.46.77 3.33 4.37 5.89 5.61 3.52 31.48-2.55 37.11-3.42 3.95 10.23 5.81 18.18-3.92 25.1-1.61 3.27-12.56 8-15 6.42-2.43-2.51-.49 1.2-3.09 3.2-2 7.15-10.2 8.67-15.7 11.21-3.58.23 1.81 4.64 5.49 3.41z"/><path d="m155.09 140.09c11.28-9.5 16.38-27.3 10.65-37.78-2.94-5.31-9.9-14.74-14.74-10.2-1.54 2.1.86 3 4.13 5.61 5.19 3.62 29-.09 34.31-.22 3.11 9.73 4.36 17.35-4.91 23.36-1.76 3.2-12.12 7.07-14.53 5.69-2.35-2.25-1.2 1.23-4 2.75-2.61 6.18-10.3 6.81-15.53 8.46-3.47-.31 1.11 3.58 4.62 2.33z"/><path d="m154.31 136.79c10.71-8.17 16.55-23.95 12.43-33.73-2.13-5-7.58-13.75-12-10-1.29 1.77 1 2.79 3.93 5.34 4.79 3.66 26.46 2 31.27 2.58 2.35 9.17 3 16.42-5.69 21.61-1.91 3.12-11.63 6.25-14.05 5-2.31-2-1.91 1.17-4.87 2.2-3.05 5.17-10.19 5-15.08 5.79-3.1-.79.75 2.51 4.06 1.21z"/><path d="m153.92 133.37c10-7 16.37-20.71 13.74-29.61-1.37-4.53-5.42-12.54-9.24-9.49-1 1.49 1.15 2.56 3.79 5.06 4.4 3.68 23.7 3.84 28 5 1.67 8.56 1.84 15.4-6.28 19.86-2 3-11.08 5.53-13.53 4.47-2.33-1.72-2.63 1-5.69 1.56-3.38 4.13-9.9 3.21-14.35 3.22-2.81-1.33.36 1.29 3.56-.07z"/><path d="m153.94 129.86c9.23-5.87 15.85-17.59 14.57-25.48-.68-4-3.45-11.1-6.63-8.67-.69 1.25 1.34 2.37 3.7 4.78 4 3.67 20.84 5.3 24.59 7 1.1 7.9.81 14.29-6.66 18.13-2.19 3-10.49 4.9-13 4-2.39-1.47-3.32.82-6.44.82-3.58 3.08-9.42 1.5-13.36.77-2.48-1.77.14.11 3.23-1.35z"/><path d="m154.37 126.31c8.34-4.91 15-14.64 14.93-21.38-.06-3.43-1.69-9.47-4.17-7.56-.35 1.06 1.56 2.21 3.65 4.52 3.68 3.61 17.91 6.4 21.05 8.6.6 7.2-.09 13.11-6.85 16.43-2.34 2.86-9.87 4.37-12.5 3.58-2.47-1.24-4 .51-7.11 0-3.66 2-8.76-.14-12.11-1.52-2.07-2.19.11-1.1 3.11-2.67z"/><path d="m155.21 122.75c7.37-4.09 13.85-11.87 14.83-17.34.47-2.79-.15-7.68-1.89-6.19 0 .92 1.81 2.09 3.66 4.28 3.35 3.53 14.92 7.15 17.41 9.76.2 6.47-.83 11.89-6.86 14.79-2.48 2.77-9.23 3.94-12 3.27-2.61-1-4.64.11-7.7-.92-3.63 1-8-1.69-10.64-3.66-1.61-2.54.25-2.29 3.19-3.99z"/><path d="m156.46 119.22c6.33-3.42 12.41-9.32 14.29-13.43.92-2.09 1.13-5.72.18-4.55.38.83 2.08 2 3.71 4.06 3.05 3.43 11.93 7.54 13.72 10.49-.1 5.73-1.41 10.63-6.69 13.22-2.61 2.67-8.57 3.61-11.47 3-2.78-.84-5.25-.36-8.2-1.9-3.48-.08-7-3.12-8.95-5.6-1.16-2.83.5-3.45 3.41-5.29z"/><path d="m158.11 115.76a65.53 65.53 0 0 0 13.31-9.66c1.29-1.35 2.17-3.65 2-2.69a33.72 33.72 0 0 1 3.82 3.86c2.77 3.3 8.95 7.59 10 10.79-.31 5-1.84 9.36-6.35 11.75-2.74 2.55-7.91 3.37-11 2.86-3-.68-5.81-.91-8.61-2.95-3.19-1.09-5.84-4.44-7.05-7.34-.6-3.12.98-4.62 3.88-6.62z"/><path d="m160.16 112.4a76.32 76.32 0 0 1 11.92-6.09c1.56-.57 2.93-1.47 3.64-.61a17.57 17.57 0 0 1 3.94 3.7c2.53 3.15 6 7.28 6.35 10.67-.43 4.22-2.11 8.06-5.86 10.36a14.18 14.18 0 0 1 -10.53 2.77 15.78 15.78 0 0 1 -8.91-4.06 13.35 13.35 0 0 1 -5-8.85c-.09-3.29 1.52-5.73 4.45-7.89z"/><path d="m162.6 109.19a13.7 13.7 0 1 0 19.22 2.47 13.73 13.73 0 0 0 -19.22-2.47z"/></g></svg>